<?xml version="1.0" encoding="UTF-8"?>
<svg xmlns="http://www.w3.org/2000/svg" width="107" height="111" viewBox="0 0 107 111" fill="none">
  <g clip-path="url(#clip0_220_82741)">
    <path d="M93.2862 32.8168L94.6018 32.0383C98.8674 29.5016 100.794 26.4011 100.515 22.5624L100.156 21.0189L102.097 20.8578C99.771 11.0598 93.2596 8.44246 91.7447 7.90558C91.1999 7.70425 90.1501 7.42239 90.1501 7.42239L91.1201 5.81175C86.5754 5.40909 81.5922 8.76459 81.5922 8.76459L83.2134 5.27487C83.2134 5.27487 83.2931 5.15407 83.333 5.10038C77.2202 6.79155 72.2503 10.2142 69.2072 13.5562C72.4363 15.0058 77.8448 18.8177 82.1237 24.1462C82.1237 24.1462 78.0973 23.9046 75.7053 25.7434C75.7053 25.7434 87.9043 29.26 87.9043 45.7422C87.9043 45.7422 82.6287 40.3331 76.0774 40.0916C76.0774 40.0916 72.4363 46.4804 60.8619 49.3125C60.8619 49.3125 65.2605 44.145 66.0179 38.1185C66.0179 38.1185 59.852 33.7161 53.4469 32.3605C47.0285 33.7161 40.8758 38.1185 40.8758 38.1185C41.6333 44.145 46.0318 49.3125 46.0318 49.3125C34.4574 46.4804 30.8164 40.0916 30.8164 40.0916C24.2783 40.3331 18.9895 45.7422 18.9895 45.7422C18.9895 28.7768 31.1884 25.7434 31.1884 25.7434C28.7965 23.9046 24.77 24.1462 24.77 24.1462C29.3147 18.4016 35.4807 15.2608 38.6566 13.9186C36.2115 11.6101 30.5904 6.72444 23.8398 4.61719C23.8398 5.69095 23.7734 7.03315 23.7734 7.03315C23.7734 7.03315 20.7303 5.94597 16.4646 5.93254L17.4746 7.43581C17.4746 7.43581 15.9198 7.69083 15.2952 7.93242C14.6707 8.1606 7.30877 10.3484 4.81051 20.831L6.63105 21.2739C6.63105 21.2739 6.39186 22.1597 6.27226 23.0188C6.27226 23.1396 5.03642 26.9648 12.4382 32.1055L13.6076 32.9242L12.9033 34.1724C12.797 34.3604 3.25574 51.5539 3.0697 64.1304C3.3089 64.023 3.56138 63.929 3.82715 63.8485L5.58125 63.2714L5.83374 65.1102C5.86031 65.3115 8.82368 84.9479 24.5043 95.3902C24.7966 95.001 25.1687 94.5715 25.6205 94.142L26.4577 93.3367L27.4543 93.9138C27.6935 94.048 33.3279 97.323 43.5867 106.947C44.9554 107.175 49.3806 107.832 54.3239 107.873H54.3638H54.7625C59.6128 107.873 62.3901 107.215 63.2539 106.987C73.5526 97.3096 79.2135 94.0212 79.4527 93.887L80.4494 93.3098L81.2865 94.1151C81.7251 94.5446 82.0972 94.9741 82.4028 95.3634C98.0834 84.9211 101.047 65.2847 101.073 65.0699L101.339 63.2311L103.093 63.7948C103.359 63.8888 103.611 63.9827 103.851 64.0767C103.665 51.5003 94.1101 34.3335 94.0038 34.1456L93.2463 32.8034L93.2862 32.8168Z" fill="#121254"></path>
    <path d="M103.638 23.8241L105.764 23.5422L105.485 21.9316C103.718 11.7577 97.7646 7.47606 94.6683 5.99964L97.1267 3.27497C97.1267 3.27497 93.0072 2.89915 89.3927 3.3555L92.5421 0.885853L87.7051 1.19456C78.2834 1.75828 70.2837 7.52975 66.4566 11.9724C57.7525 7.28815 48.1183 7.32842 48.1183 7.32842L50.364 9.19408C50.2311 9.19408 43.5868 9.38198 43.5868 9.38198L47.4937 11.355C44.9157 11.7577 42.9224 12.2946 41.8062 12.6167C39.4142 10.1873 31.2151 2.55018 20.7038 0.6711L16.9431 0L19.056 2.96626C17.5146 2.76493 15.6143 2.73809 13.3286 3.00653L10.6443 3.32866L12.4516 5.75804C9.23574 7.35526 3.21599 11.6637 1.43532 21.9181L1.15625 23.5288L3.12297 23.7838C3.12297 25.9582 4.13291 29.7163 9.55467 33.8503C7.08298 38.548 -1.20912 55.3255 0.146319 67.2174L0.305782 69.3247C0.305782 69.3247 3.02995 67.8348 3.2027 67.6872C4.47841 73.5526 9.26231 89.7798 24.212 98.8665L25.6339 99.7255L26.3914 98.2357C26.3914 98.2357 26.604 97.8196 27.0026 97.2961C29.0757 98.6786 34.1918 102.343 41.846 109.55L42.1782 109.859L42.6168 109.94C42.8427 109.98 48.3574 110.987 54.7493 110.987H55.1878C61.4202 110.946 64.45 109.886 64.5696 109.846L64.8885 109.738L65.1277 109.51C72.7819 102.289 77.8981 98.6249 79.9711 97.2559C80.3697 97.7793 80.5824 98.182 80.5824 98.1954L81.3398 99.7121L82.775 98.8397C97.7247 89.753 102.509 73.5123 103.784 67.6603C103.944 67.808 106.668 69.271 106.668 69.271L106.841 67.1906C108.183 55.3524 99.9705 38.7091 97.4456 33.9174C101.392 31.2062 103.465 27.8238 103.638 23.8241ZM103.891 64.0901C103.651 63.9827 103.399 63.8888 103.133 63.8082L101.379 63.2445L101.113 65.0833C101.087 65.2846 98.1233 84.921 82.4428 95.3768C82.1504 94.9875 81.7783 94.558 81.3265 94.1285L80.4893 93.3232L79.4927 93.9004C79.2535 94.0346 73.6058 97.323 63.2939 107C62.4301 107.228 59.6395 107.886 54.8024 107.886H54.3639C49.4205 107.846 44.9954 107.188 43.6267 106.96C33.3679 97.3364 27.7335 94.0614 27.4943 93.9272L26.4977 93.3501L25.6605 94.1554C25.222 94.5849 24.8499 95.0144 24.5442 95.4036C8.86366 84.9479 5.90029 65.3115 5.87372 65.1236L5.62123 63.2848L3.86713 63.8619C3.60136 63.9559 3.34888 64.0498 3.10968 64.1438C3.29572 51.5674 12.837 34.3738 12.9433 34.1859L13.6476 32.9376L12.4782 32.1189C5.0764 26.9782 6.32553 23.1664 6.31224 23.0322C6.43184 22.1866 6.67103 21.2873 6.67103 21.2873L4.85049 20.8444C7.34875 10.3618 14.7239 8.18742 15.3352 7.94583C15.9598 7.71765 17.5146 7.44921 17.5146 7.44921L16.5046 5.94595C20.7703 5.95937 23.8001 7.04655 23.8134 7.04655C23.8134 7.04655 23.8798 5.70435 23.8798 4.63059C30.6304 6.73785 36.2515 11.6235 38.6966 13.932C35.5339 15.2742 29.368 18.415 24.81 24.1596C24.81 24.1596 28.8365 23.918 31.2284 25.7568C31.2284 25.7568 19.0295 28.7902 19.0295 45.7556C19.0295 45.7556 24.305 40.3466 30.8563 40.105C30.8563 40.105 34.4974 46.4938 46.0718 49.3259C46.0718 49.3259 41.6733 44.1584 40.9158 38.1319C40.9158 38.1319 47.0817 33.7295 53.4869 32.3739C59.9053 33.7295 66.0579 38.1319 66.0579 38.1319C65.3004 44.1584 60.9019 49.3259 60.9019 49.3259C72.4763 46.4938 76.1174 40.105 76.1174 40.105C82.6554 40.3466 87.9443 45.7556 87.9443 45.7556C87.9443 29.2734 75.7453 25.7568 75.7453 25.7568C78.1373 23.918 82.1637 24.1596 82.1637 24.1596C77.8848 18.8311 72.4763 15.0326 69.2472 13.5696C72.2903 10.2276 77.2735 6.80496 83.373 5.11378C83.3331 5.16747 83.2932 5.23458 83.2534 5.28827L81.6322 8.77799C81.6322 8.77799 86.6154 5.42249 91.1601 5.82515L90.19 7.43579C90.19 7.43579 91.2398 7.73108 91.7847 7.91898C93.2863 8.45586 99.811 11.0732 102.137 20.8712L100.196 21.0323L100.555 22.5758C100.834 26.4145 98.8941 29.515 94.6417 32.0518L93.3262 32.8302L94.0836 34.1724C94.1899 34.3603 103.758 51.5137 103.93 64.1035L103.891 64.0901Z" fill="#F4F4F4"></path>
    <path d="M53.4601 51.2317L46.2976 55.0435L36.743 78.4918C36.743 78.4918 38.1251 83.9814 42.7761 84.7196C42.7761 84.7196 41.2612 81.0286 42.0186 77.8341C42.0186 77.8341 43.7329 75.1229 50.9087 75.4987C50.9087 75.4987 47.0949 76.3577 45.5401 79.3911C45.5401 79.3911 50.0715 79.8206 53.4601 81.9681C56.5697 79.6595 61.3802 79.3911 61.3802 79.3911C59.2805 75.9953 56.0116 75.4987 56.0116 75.4987C63.1874 75.1229 64.9016 77.8341 64.9016 77.8341C65.6591 81.0286 64.1442 84.7196 64.1442 84.7196C68.7952 83.9814 70.1772 78.4918 70.1772 78.4918L60.6227 55.0435L53.4601 51.2317Z" fill="#F4F4F4"></path>
    <path d="M31.8395 49.6078C30.7366 48.2388 30.6435 46.4939 31.5605 45.5678C31.5605 45.541 31.5605 45.5275 31.5605 45.5275C30.3379 44.1317 29.2482 43.729 29.2482 43.729C21.7402 45.8228 17.9263 50.9769 17.9263 50.9769C24.2916 46.6282 28.9559 47.6214 28.9559 47.6214C31.4276 52.9902 36.2115 51.5943 36.2115 51.5943V50.4937C36.2115 50.4937 36.0653 50.6279 35.9856 50.6816C34.856 51.5406 32.9956 51.0708 31.8262 49.6078" fill="#F4F4F4"></path>
    <path d="M35.3344 49.5271L35.454 49.4198L32.9026 46.7488V46.7756C32.3977 47.2857 32.4641 48.2252 33.0754 48.9634C33.7265 49.7419 34.7365 49.9969 35.3477 49.5271" fill="#00A8E1"></path>
    <path d="M77.7384 43.729C77.7384 43.729 76.6488 44.1451 75.4262 45.5275C75.4262 45.5275 75.4262 45.541 75.4262 45.5678C76.3431 46.4939 76.2501 48.2388 75.1471 49.6078C73.9777 51.0708 72.1173 51.554 70.9878 50.6816C70.9214 50.6279 70.7619 50.4937 70.7619 50.4937V51.5943C70.7619 51.5943 75.5458 52.9902 78.0175 47.6214C78.0175 47.6214 82.6685 46.6416 89.0471 50.9769C89.0471 50.9769 85.2332 45.8094 77.7251 43.7156" fill="#F4F4F4"></path>
    <path d="M73.9379 48.9634C74.5359 48.2252 74.6024 47.2857 74.1107 46.7756V46.7622L71.5593 49.4332C71.5593 49.4332 71.639 49.5003 71.6789 49.5406C72.2901 50.0238 73.3001 49.7687 73.9512 48.9768" fill="#00A8E1"></path>
  </g>
  <defs>
    <clipPath id="clip0_220_82741">
      <rect width="107" height="111" fill="white"></rect>
    </clipPath>
  </defs>
</svg>
