<svg width="240" height="240" viewBox="0 0 240 240" fill="none" xmlns="http://www.w3.org/2000/svg">
<g clip-path="url(#clip0_3972_172665)">
<path d="M202.118 210.169H178.076C176.356 210.128 174.671 210.66 173.285 211.681L173.271 210.804V197.828H160.589C159.606 197.786 158.628 197.974 157.731 198.377C156.834 198.78 156.043 199.386 155.422 200.148C154.324 201.494 153.727 203.179 153.734 204.916V209.872H152.985H151V211.763C150.932 211.718 150.861 211.673 150.789 211.632C149.9 211.114 148.936 210.738 147.932 210.515C146.927 210.284 145.899 210.167 144.868 210.166H129.737C128.665 210.154 127.603 210.371 126.621 210.803C125.64 211.235 124.763 211.872 124.048 212.671C123.4 213.394 122.896 214.233 122.563 215.145C122.54 215.205 122.517 215.265 122.499 215.326V209.986H103.77V215.04C103.402 214.049 102.839 213.143 102.115 212.373C101.36 211.581 100.445 210.96 99.4315 210.549C98.4177 210.137 97.3281 209.947 96.235 209.989H89.8762V197.61L46.4925 197.591C45.1306 197.584 43.778 197.816 42.496 198.276C41.2877 198.704 40.1667 199.347 39.1873 200.174C38.2512 200.976 37.4709 201.944 36.8856 203.028C36.2733 204.153 35.9516 205.414 35.9497 206.694V228.88C35.9519 230.217 36.1741 231.545 36.6076 232.809C37.0404 234.105 37.7126 235.308 38.5893 236.355C39.4992 237.432 40.6268 238.303 41.898 238.912C43.2728 239.56 44.7755 239.891 46.2953 239.882L125.039 239.998L125.154 238.291C125.82 238.772 126.55 239.156 127.323 239.434C128.406 239.819 129.549 240.011 130.699 240H146.863C147.8 240.001 148.728 239.823 149.597 239.474C150.089 239.276 150.56 239.03 151.004 238.741V240H194.682C196.561 240.04 198.39 239.393 199.826 238.181C200.536 237.598 201.11 236.868 201.507 236.04C201.905 235.212 202.116 234.308 202.127 233.39L202.118 210.169ZM72.2326 219.853H55.7883V215.873H72.2326V219.853ZM107.035 227.693H104.264V221.934H107.035V227.693Z" fill="black"/>
<path d="M183.665 166.703C191.212 157.04 196.452 145.78 198.984 133.783C201.516 121.786 201.274 109.369 198.276 97.4796C198.216 97.1361 198.143 96.7757 198.041 96.3821C190.217 65.9869 162.029 42.8088 144.943 33.5857C137.529 29.5795 137.503 24.8233 137.543 22.8312L137.645 22.7447C138.268 22.2229 138.659 21.476 138.733 20.6668C138.756 20.4244 138.771 20.1876 138.789 19.9136C138.817 19.4861 138.851 18.9559 138.939 18.1243C139.511 12.7183 135.948 9.77566 132.796 7.17814L131.788 6.3457L130.01 7.20319C126.378 8.94403 122.623 10.7439 121.939 15.8015C121.705 17.5351 121.669 18.2156 121.629 18.9987C121.603 19.6652 121.771 20.3248 122.114 20.8972C120.108 25.1288 115.498 28.3228 108.412 30.3845C108.412 30.3845 102.964 32.0954 100.411 33.2261C83.5623 40.09 63.545 54.1033 51.1474 76.3139C41.7307 92.2568 38.1066 110.962 40.8875 129.268C43.6684 147.574 52.6837 164.359 66.4101 176.786C67.9999 180.253 70.2511 183.376 73.0372 185.98C73.4047 186.33 73.8865 186.534 74.3931 186.555C74.8997 186.575 75.3967 186.412 75.7915 186.094C75.8311 186.062 75.8683 186.03 75.9047 185.996C78.1847 188.909 81.0474 191.314 84.3099 193.058C84.6412 193.226 84.9297 193.381 85.1989 193.533L85.367 193.614C87.2612 194.492 89.2194 195.225 91.2247 195.807C91.5933 195.887 91.9767 195.867 92.3347 195.748C92.6927 195.63 93.0123 195.417 93.2601 195.132C93.5078 194.848 93.6747 194.502 93.7431 194.131C93.8116 193.76 93.7792 193.378 93.6493 193.024C100.284 195.36 107.198 196.811 114.213 197.339C114.69 197.986 114.998 198.743 115.108 199.54C115.154 201.383 112.598 202.969 114.139 203.98L119.946 207.795L121.103 206.896C124.83 203.976 128.18 200.605 131.077 196.861L131.3 196.834C131.462 196.811 131.629 196.784 131.793 196.761L130.4 199.521C130.18 199.946 130.105 200.433 130.188 200.904C130.272 201.376 130.508 201.808 130.861 202.132C131.214 202.456 131.664 202.655 132.141 202.698C132.618 202.741 133.097 202.626 133.502 202.37C137.751 199.633 141.844 196.66 145.762 193.467C146.859 193.102 147.945 192.715 149.022 192.307C150.073 191.903 151.118 191.474 152.151 191.028L151.883 192.315C151.792 192.751 151.839 193.205 152.017 193.614C152.195 194.023 152.495 194.366 152.877 194.597C153.258 194.828 153.702 194.934 154.146 194.902C154.591 194.869 155.015 194.7 155.359 194.416C159.15 191.235 162.565 187.63 165.537 183.672C167.219 182.527 168.855 181.323 170.445 180.059C171.478 179.234 172.484 178.379 173.473 177.507C175.018 178.943 182.678 185.778 184.297 187.222C184.644 187.533 185.081 187.725 185.544 187.771C186.008 187.818 186.474 187.715 186.875 187.479C187.276 187.242 187.592 186.884 187.776 186.456C187.96 186.029 188.003 185.553 187.899 185.099L183.665 166.703Z" fill="#FFCD00"/>
<path d="M106.321 123.61L91.9893 122.751L103.641 154.832C103.78 155.21 103.995 155.556 104.274 155.847C104.552 156.138 104.888 156.368 105.26 156.524C105.632 156.679 106.032 156.756 106.434 156.749C106.837 156.743 107.234 156.653 107.601 156.486L118.955 151.299L113.817 129.528C112.999 126.052 110.024 123.803 106.321 123.61Z" fill="#F59C00"/>
<path d="M87.9391 151.15C93.1584 153.648 97.7036 157.126 97.9429 156.808C97.9429 156.808 89.6419 141.801 87.3612 139.74C84.9876 137.594 73.0716 134.037 73.0716 134.037L73.0611 134.022C65.389 141.619 62.5684 144.703 62.5789 145.538C62.5648 147.252 62.6693 148.964 62.8917 150.663C63.2238 150.412 68.861 146.996 72.3337 145.122C72.693 144.927 73.0922 144.818 73.5005 144.803C73.9088 144.787 74.3151 144.866 74.688 145.033C76.6778 145.929 79.007 146.821 82.4983 148.589C82.5052 148.593 82.5128 148.594 82.5205 148.593C82.5281 148.593 82.5354 148.59 82.5417 148.586C82.5479 148.582 82.5529 148.576 82.5561 148.569C82.5593 148.562 82.5605 148.554 82.5598 148.546L81.9326 144.505C81.9307 144.492 81.9331 144.478 81.9396 144.466C81.9462 144.454 81.9564 144.444 81.9688 144.439C81.9812 144.433 81.9952 144.431 82.0086 144.434C82.022 144.437 82.0342 144.444 82.0433 144.454L87.9391 151.15Z" fill="black"/>
<path d="M73.7067 149.295L68.2676 150.206L68.4721 152.254L73.3648 153.392L83.0623 152.766L82.815 150.959L73.7067 149.295Z" fill="#D20A2D"/>
<path d="M73.288 92.0437C74.5904 92.0437 75.6463 90.9879 75.6463 89.6854C75.6463 88.383 74.5904 87.3271 73.288 87.3271C71.9855 87.3271 70.9297 88.383 70.9297 89.6854C70.9297 90.9879 71.9855 92.0437 73.288 92.0437Z" fill="black"/>
<path d="M91.4325 88.824C92.735 88.824 93.7908 87.7682 93.7908 86.4657C93.7908 85.1633 92.735 84.1074 91.4325 84.1074C90.1301 84.1074 89.0742 85.1633 89.0742 86.4657C89.0742 87.7682 90.1301 88.824 91.4325 88.824Z" fill="black"/>
<path d="M109.8 88.2742C111.102 88.2742 112.158 87.2184 112.158 85.9159C112.158 84.6135 111.102 83.5576 109.8 83.5576C108.497 83.5576 107.441 84.6135 107.441 85.9159C107.441 87.2184 108.497 88.2742 109.8 88.2742Z" fill="black"/>
<path d="M128.233 89.9812C129.535 89.9812 130.591 88.9254 130.591 87.6229C130.591 86.3205 129.535 85.2646 128.233 85.2646C126.93 85.2646 125.875 86.3205 125.875 87.6229C125.875 88.9254 126.93 89.9812 128.233 89.9812Z" fill="black"/>
<path d="M146.894 94.4187C148.196 94.4187 149.252 93.3629 149.252 92.0604C149.252 90.758 148.196 89.7021 146.894 89.7021C145.592 89.7021 144.536 90.758 144.536 92.0604C144.536 93.3629 145.592 94.4187 146.894 94.4187Z" fill="black"/>
<path d="M164.758 101.701C166.061 101.701 167.116 100.645 167.116 99.3427C167.116 98.0402 166.061 96.9844 164.758 96.9844C163.456 96.9844 162.4 98.0402 162.4 99.3427C162.4 100.645 163.456 101.701 164.758 101.701Z" fill="black"/>
<path d="M91.6274 104.064C89.9213 105.43 87.702 105.771 90.0724 106.948C91.7906 107.801 95.2012 107.941 98.4533 107.837C96.7464 105.966 95.8147 103.517 95.8469 100.984C95.1799 101.216 94.5601 101.566 94.0172 102.018L91.6274 104.064Z" fill="white"/>
<path d="M65.0984 101.112L65.0976 101.118L65.0952 101.119L65.1033 101.116L65.0984 101.112Z" fill="white"/>
<path d="M72.1858 100.638L70.921 99.4463C69.9011 99.713 68.9555 99.9652 68.0374 100.223L67.8628 100.272C67.4385 100.392 67.0207 100.515 66.6053 100.639L66.3749 100.709C65.9498 100.839 65.5255 100.971 65.0988 101.114L65.1036 101.118H65.0956V101.125L68.7825 103.806C69.6885 104.403 70.053 105.069 69.7919 105.931L65.8027 120.119L63.644 127.207C64.5896 127.007 69.9811 129.281 69.9811 129.281L70.0263 129.256C69.4258 128.827 69.0371 127.974 69.2028 126.385C69.3992 124.503 70.6034 120.525 70.9081 118.559L73.5573 104.629C73.6695 103.903 73.6033 103.159 73.3644 102.464C73.1254 101.769 72.7209 101.142 72.1858 100.638Z" fill="#F59C00"/>
<path d="M131.659 8.75293C127.982 10.5309 124.691 11.8774 124.124 16.0743C123.903 17.7036 123.869 18.3373 123.828 19.1107C123.825 19.3878 123.902 19.66 124.05 19.8938C124.293 19.8316 124.58 19.7661 124.91 19.7015C126.662 19.3681 128.454 19.2843 130.23 19.4526C132.142 19.6502 134.014 20.1298 135.785 20.8758C136.05 20.9849 136.283 21.0883 136.492 21.1837C136.703 21.0062 136.836 20.7528 136.862 20.4781C136.92 19.8591 136.926 19.2715 137.07 17.9097C137.516 13.6982 134.809 11.3521 131.659 8.75293Z" fill="black"/>
<path d="M174.843 175.845C175.396 176.411 185.818 185.705 185.818 185.705C185.842 185.727 185.872 185.74 185.904 185.743C185.937 185.746 185.969 185.739 185.997 185.723C186.025 185.707 186.047 185.682 186.059 185.652C186.072 185.622 186.075 185.589 186.068 185.558L169.349 112.823C169.344 112.797 169.346 112.77 169.355 112.745C169.365 112.72 169.382 112.699 169.404 112.683C169.426 112.668 169.452 112.659 169.478 112.659C169.505 112.658 169.531 112.666 169.554 112.68C170.732 113.439 171.882 114.216 172.986 115.012C173.044 115.054 173.114 115.077 173.185 115.076C173.256 115.076 173.326 115.052 173.383 115.009C173.44 114.966 173.481 114.905 173.501 114.837C173.52 114.768 173.517 114.695 173.491 114.628C172.938 113.03 172.636 111.355 172.598 109.664C169.444 107.445 166.145 105.439 162.725 103.659C160.309 102.398 157.776 101.216 155.151 100.108C146.854 96.6499 138.202 94.1144 129.351 92.5473C124.088 91.5964 118.775 90.9488 113.437 90.6076C100.203 89.6955 86.9064 90.8028 74.0049 93.8913C70.473 94.7623 66.989 95.817 63.5672 97.0513C63.6431 95.0923 63.9106 90.5955 64.8045 87.762C66.1784 87.2626 67.461 86.7995 67.7205 86.7243C81.551 82.3116 98.8438 80.3873 116.147 81.4937C123.673 81.9705 131.148 83.0515 138.501 84.7264C152.025 87.817 164.084 92.7792 173.803 99.0403L173.847 99.0193C174.226 94.71 174.387 89.4018 174.566 85.8717C175.591 65.62 165.769 47.7413 146.258 36.6529C135.868 30.7531 135.579 24.9818 135.677 22.3382C135.212 22.1111 134.659 21.8663 134.038 21.6351C132.776 21.1564 131.457 20.8464 130.114 20.713C128.566 20.5678 127.006 20.62 125.472 20.8681C125.082 20.9328 124.739 21.0039 124.437 21.0758C123.3 23.8665 120.25 29.1149 109.113 32.3549L109.104 32.359C82.7399 41.3436 67.7318 60.5204 61.7099 85.0578H61.7051C60.6426 89.2539 59.8863 93.5216 59.4422 97.8272C58.3673 99.0443 56.4995 101.13 53.7784 104.07C53.4009 104.475 53.3678 104.717 53.4292 104.871C53.5998 105.298 54.2374 104.999 54.2374 104.999C56.1581 104.125 58.1252 103.357 60.1299 102.699C62.78 104.517 65.4591 108.852 65.9659 112.753C66.1156 115.208 66.0594 117.671 65.7978 120.117L69.787 105.929C70.048 105.067 69.6835 104.401 68.7776 103.804L65.3234 101.29C65.0971 101.134 65.1819 101.092 65.3096 101.048C65.3848 101.022 66.5284 100.66 66.6027 100.636C67.0181 100.512 67.4373 100.39 67.8603 100.27L68.0348 100.22C69.3902 99.8396 70.8094 99.4711 72.4346 99.05C77.6799 97.7025 83.0106 96.7124 88.3899 96.0864C88.4033 96.0845 88.417 96.0873 88.4286 96.0942C88.4403 96.1011 88.4493 96.1118 88.454 96.1245C88.4588 96.1371 88.4592 96.1511 88.455 96.164C88.4508 96.1769 88.4424 96.188 88.4311 96.1955L81.2932 100.935C80.8305 101.273 80.449 101.709 80.1763 102.212C79.9037 102.715 79.7468 103.273 79.7172 103.845L79.7002 103.839L77.3977 124.171C77.2627 125.13 76.8861 126.894 73.954 127.678C72.5874 128.051 71.269 128.582 70.0254 129.261L69.9801 129.286C69.9801 129.286 64.5887 127.013 63.6431 127.212C63.589 127.223 70.0181 132.869 73.1305 132.713C73.2477 132.704 73.3629 132.677 73.4715 132.632L80.8729 129.837C81.9848 129.459 82.9502 128.742 83.6333 127.786C84.3164 126.831 84.6828 125.686 84.6811 124.511C84.7191 123.019 83.7226 121.209 82.4319 119.674L82.2016 108.065L82.6453 108.389C87.2323 111.837 92.6067 114.087 98.2821 114.935C98.7376 115.002 99.1962 115.045 99.6561 115.064C99.6906 115.064 99.7244 115.055 99.7544 115.038C99.7844 115.02 99.8095 114.996 99.8275 114.966C99.8454 114.937 99.8555 114.903 99.8569 114.869C99.8584 114.834 99.851 114.8 99.8355 114.769L98.5343 112.108C98.459 111.955 98.4167 111.788 98.4103 111.618C98.4039 111.447 98.4335 111.278 98.4971 111.12C98.5607 110.962 98.6569 110.819 98.7795 110.7C98.902 110.582 99.0481 110.491 99.2083 110.433L104.057 108.661C104.091 108.648 104.121 108.628 104.146 108.602C104.17 108.575 104.187 108.543 104.197 108.509C104.207 108.474 104.208 108.438 104.2 108.402C104.193 108.367 104.178 108.334 104.155 108.306C103.961 108.059 103.708 107.865 103.42 107.741C103.131 107.617 102.816 107.568 102.503 107.597C98.5359 107.931 92.5497 108.18 90.0742 106.95C87.7037 105.773 89.923 105.432 91.6291 104.066L94.0189 102.018C94.8537 101.336 95.8528 100.885 96.9165 100.71C97.9801 100.535 99.0711 100.643 100.08 101.021L107.959 103.477C109.914 104.087 112.016 104.045 113.945 103.355C115.874 102.666 117.527 101.368 118.653 99.6569L120.779 96.1712C123.049 96.4438 125.29 96.7671 127.503 97.141C128.473 97.3027 129.434 97.4853 130.391 97.668C127.785 102.502 121.163 116.41 119.13 120.607C118.766 121.354 118.665 122.203 118.842 123.015C119.812 127.49 123.106 143.889 125.254 154.976C120.439 157.185 108.887 163.494 102.663 166.561C101.589 167.089 100.404 167.35 99.2075 167.321L99.041 167.315C98.1398 167.248 97.2436 167.125 96.3578 166.946L82.3131 164.248C82.2986 164.246 82.2856 164.238 82.2765 164.227C82.2674 164.215 82.2629 164.201 82.2639 164.186C82.2649 164.171 82.2713 164.158 82.2819 164.147C82.2925 164.137 82.3065 164.131 82.3212 164.131L90.8775 163.678C90.8936 163.678 90.9092 163.673 90.9219 163.663C90.9345 163.653 90.9436 163.639 90.9477 163.623C90.9518 163.607 90.9507 163.591 90.9446 163.576C90.9385 163.561 90.9277 163.549 90.9139 163.54C86.3815 160.894 80.4325 158.212 77.2506 156.532C76.4851 156.13 75.6333 155.921 74.7689 155.922C73.9044 155.924 73.0533 156.136 72.2891 156.54C70.41 157.521 68.6626 158.736 67.0884 160.156C66.7573 160.43 66.487 160.771 66.2949 161.156C66.1027 161.541 65.9929 161.961 65.9723 162.391C65.4729 172.969 69.8419 180.01 74.6006 184.494C74.6127 184.505 74.6281 184.51 74.644 184.51C74.66 184.51 74.6754 184.505 74.6876 184.494C74.6997 184.484 74.7078 184.47 74.7104 184.454C74.713 184.438 74.7098 184.422 74.7016 184.409C72.829 181.217 71.8729 175.289 71.8729 175.289C71.8716 175.273 71.876 175.257 71.8854 175.244C71.8948 175.231 71.9085 175.221 71.9242 175.217C71.9399 175.213 71.9564 175.215 71.9709 175.222C71.9853 175.23 71.9967 175.242 72.003 175.257C72.8525 177.313 77.2458 187.107 85.402 191.238C85.7625 191.42 86.076 191.59 86.3718 191.755C88.1399 192.577 89.9666 193.267 91.8368 193.818C91.8513 193.82 91.8659 193.817 91.8785 193.81C91.8911 193.802 91.901 193.791 91.9066 193.778C91.9123 193.764 91.9134 193.749 91.9099 193.735C91.9063 193.721 91.8983 193.709 91.8869 193.7C90.608 192.648 89.4417 191.466 88.4069 190.173C95.758 187.453 102.868 184.122 109.662 180.213C109.666 180.211 109.67 180.21 109.675 180.21C109.679 180.21 109.683 180.212 109.687 180.215C109.69 180.218 109.692 180.222 109.693 180.226C109.694 180.231 109.693 180.235 109.691 180.239C109.543 180.538 108.743 181.993 105.985 184.914C105.943 184.958 105.985 185.032 106.04 185.006C108.06 184.025 121.371 177.273 128.724 166.355C128.923 166.06 129.094 165.789 129.256 165.528C132.433 166.044 135.571 166.779 138.647 167.729C139.024 167.859 139.435 167.856 139.81 167.72C140.185 167.585 140.503 167.325 140.71 166.984L158.994 137.15C159.371 136.53 159.564 135.816 159.55 135.091C159.486 131.682 159.406 121.606 159.327 114.113C159.328 114.084 159.34 114.057 159.359 114.036C159.379 114.015 159.406 114.003 159.434 114C159.463 113.998 159.492 114.006 159.515 114.023C159.538 114.04 159.553 114.066 159.559 114.094L163.146 135.178C163.528 137.295 163.194 139.479 162.197 141.385L132.375 200.463C132.36 200.49 132.355 200.521 132.359 200.551C132.364 200.581 132.378 200.608 132.4 200.629C132.422 200.65 132.45 200.663 132.481 200.666C132.511 200.67 132.541 200.663 132.567 200.647C135.246 198.939 149.129 189.857 156.551 180.008C156.561 179.995 156.575 179.986 156.591 179.982C156.607 179.979 156.624 179.98 156.638 179.987C156.653 179.994 156.665 180.006 156.672 180.021C156.679 180.035 156.681 180.052 156.678 180.068L154.045 192.726C154.04 192.748 154.042 192.771 154.051 192.793C154.06 192.814 154.075 192.832 154.095 192.844C154.114 192.856 154.137 192.861 154.16 192.86C154.183 192.859 154.205 192.85 154.223 192.836C156.005 191.37 167.147 181.83 170.381 170.24C170.384 170.227 170.39 170.215 170.4 170.206C170.41 170.196 170.422 170.19 170.435 170.188C170.448 170.186 170.462 170.188 170.474 170.193C170.486 170.199 170.497 170.208 170.504 170.219C171.73 172.254 173.186 174.142 174.843 175.845Z" fill="black"/>
<path d="M121.856 31.223C114.017 37.5568 110.622 38.0118 102.101 42.3825C83.3136 52.0275 74.7549 74.8451 74.7549 74.8451C77.6802 73.8542 80.6764 73.0864 83.7177 72.5482C85.0459 72.3261 86.2961 71.7709 87.3515 70.9347C88.407 70.0984 89.2333 69.0083 89.7533 67.7661C98.021 48.01 107.002 44.1169 114.693 38.6875C120.671 34.4679 123.064 30.2476 121.856 31.223Z" fill="white"/>
<path d="M125.676 17.8729C125.676 13.0787 128.562 12.0814 129.539 11.4252C129.554 11.4184 129.57 11.4164 129.586 11.4192C129.602 11.4221 129.617 11.4297 129.629 11.4412C129.64 11.4527 129.648 11.4674 129.651 11.4834C129.655 11.4995 129.653 11.5161 129.646 11.5311C128.652 12.6855 128.062 14.1326 127.964 15.6528C127.893 16.2416 127.63 16.7905 127.215 17.2143C126.8 17.6381 126.257 17.9131 125.67 17.9966L125.676 17.8729Z" fill="white"/>
<path d="M138.154 99.467C137.218 99.1064 136.245 98.849 135.253 98.6992L124.172 122.351C124.12 122.462 124.104 122.586 124.128 122.706L130.126 153.32C130.323 154.323 130.779 155.256 131.451 156.027C132.123 156.797 132.985 157.377 133.952 157.708L127.037 122.709L138.154 99.467Z" fill="white"/>
<path d="M142.384 116.728C142.875 116.901 143.324 117.174 143.704 117.53C144.083 117.885 144.385 118.316 144.59 118.794C144.847 119.421 144.949 120.101 144.889 120.776C144.829 121.451 144.608 122.101 144.245 122.673C142.113 126.382 137.648 128.805 136.325 132.983C135.202 136.526 136.458 140.704 139.528 142.439C140.065 142.739 140.639 142.969 141.234 143.124C145.128 144.153 149.53 141.646 150.31 137.796C150.31 137.796 150.957 135.649 149.091 131.668C147.385 128.031 150.527 126.177 152.491 126.826C154.396 127.457 154.682 129.987 153.983 131.743L155.272 132.754C155.938 130.594 155.581 127.754 153.684 126.279C153.215 125.927 152.672 125.687 152.096 125.576C151.52 125.465 150.927 125.487 150.361 125.64C149.794 125.793 149.271 126.073 148.829 126.459C148.388 126.845 148.04 127.326 147.812 127.867C146.513 130.943 149.272 133.898 148.735 137.016C148.576 137.753 148.249 138.444 147.78 139.034C147.311 139.625 146.713 140.1 146.032 140.422C145.35 140.745 144.603 140.906 143.849 140.894C143.096 140.882 142.355 140.697 141.684 140.352C140.405 139.743 139.403 138.675 138.878 137.359C138.353 136.044 138.343 134.579 138.85 133.257C140.449 128.142 148.682 124.191 145.914 118.135C145.415 117.066 144.568 116.198 143.51 115.674C142.453 115.15 141.249 115.001 140.096 115.251C138.944 115.502 137.91 116.137 137.166 117.053C136.422 117.969 136.011 119.11 136.001 120.29C135.985 120.953 136.139 121.609 136.449 122.196C136.758 122.782 137.213 123.28 137.77 123.641C139.858 124.79 142.177 123.452 142.482 121.787C142.58 121.247 142.537 120.691 142.359 120.173C142.181 119.654 141.873 119.189 141.464 118.823L140.44 119.832C140.674 119.996 140.871 120.207 141.019 120.452C141.166 120.697 141.261 120.97 141.297 121.254C141.323 121.461 141.306 121.671 141.248 121.872C141.191 122.072 141.093 122.259 140.961 122.421C140.829 122.582 140.666 122.716 140.481 122.813C140.297 122.91 140.094 122.968 139.886 122.985C139.55 123.016 139.211 122.978 138.89 122.873C138.569 122.769 138.273 122.601 138.018 122.379C137.764 122.157 137.558 121.885 137.412 121.581C137.265 121.277 137.182 120.946 137.167 120.609C137.103 119.833 137.273 119.056 137.656 118.378C138.039 117.701 138.618 117.154 139.316 116.811C140.288 116.381 141.391 116.351 142.384 116.728Z" fill="#F59C00"/>
<path d="M71.0161 163.916C71.0161 163.916 74.417 180.249 84.9242 187.515C84.9574 187.538 85.0051 187.495 84.9752 187.464C83.6012 185.938 75.8685 176.896 74.0824 164.47L71.0161 163.916Z" fill="#F59C00"/>
<path d="M121.745 205.081C121.709 207.204 120.839 209.228 119.325 210.717C117.811 212.205 115.772 213.039 113.649 213.039C111.525 213.039 109.487 212.205 107.972 210.717C106.458 209.228 105.588 207.204 105.552 205.081C105.552 200.678 109.176 197.521 113.648 197.521C118.12 197.521 121.745 200.678 121.745 205.081Z" fill="#1D1D1B"/>
<path d="M121.783 205.08C121.747 207.215 120.873 209.249 119.351 210.745C117.829 212.241 115.78 213.079 113.645 213.079C111.511 213.079 109.462 212.241 107.94 210.745C106.418 209.249 105.544 207.215 105.507 205.08C105.507 200.664 109.178 197.381 113.645 197.381C118.147 197.381 121.783 200.655 121.783 205.08Z" fill="black"/>
<path d="M198.668 236.39C197.59 237.304 196.212 237.787 194.799 237.748H172.457V228.476H182.41L172.457 226.403V217.19C172.463 216.513 172.607 215.845 172.88 215.226C173.153 214.607 173.549 214.049 174.044 213.588C174.592 213.051 175.244 212.632 175.961 212.357C176.678 212.082 177.443 211.957 178.21 211.99H199.737V221.09H190.965L200.259 223.101V233.144C200.257 233.77 200.113 234.388 199.838 234.95C199.563 235.513 199.164 236.006 198.671 236.393M167.96 220.499V229.122H170.614V237.748H153.141V229.122H155.942V220.38H153.141V211.694H155.867V204.78C155.861 203.498 156.305 202.254 157.123 201.267C157.56 200.74 158.115 200.323 158.742 200.051C159.37 199.779 160.054 199.658 160.737 199.699H171.427V208.562L167.888 208.622V211.694H171.499V220.496L167.96 220.499ZM151.777 234.941C151.501 235.479 151.126 235.96 150.671 236.359C150.181 236.787 149.62 237.127 149.013 237.363C148.381 237.619 147.706 237.749 147.024 237.746H130.875C129.96 237.758 129.05 237.609 128.186 237.306C127.417 237.035 126.704 236.624 126.085 236.094C125.506 235.598 125.04 234.984 124.72 234.293C124.404 233.619 124.241 232.883 124.243 232.138V217.601C124.264 216.206 124.787 214.864 125.716 213.822C126.22 213.26 126.835 212.806 127.522 212.491C128.273 212.148 129.091 211.976 129.916 211.988H145.029C145.91 211.988 146.788 212.088 147.646 212.284C148.45 212.46 149.221 212.76 149.933 213.173C150.573 213.545 151.127 214.049 151.557 214.651C151.977 215.258 152.195 215.981 152.181 216.719V227.829H137.44V229.365H152.183V233.264C152.185 233.85 152.046 234.427 151.779 234.948M106.015 237.754V229.243H108.61V220.555H105.956V211.811H120.703V229.243H123.357V237.748L106.015 237.754ZM89.447 237.754V220.555H88.0448V237.746H71.999V229.122H74.9893V208.325H71.9691V199.82H88.1152V212.635L89.1448 211.808H96.4476C97.2664 211.767 98.0845 211.902 98.8471 212.203C99.6097 212.504 100.299 212.964 100.869 213.553C101.933 214.677 102.513 216.173 102.486 217.719V229.24H104.959V237.746L89.447 237.754ZM46.6841 237.636C45.4245 237.662 44.1757 237.399 43.0327 236.869C42.0135 236.386 41.1086 235.691 40.3778 234.832C39.6626 233.976 39.1131 232.994 38.7574 231.936C38.3937 230.881 38.2069 229.773 38.2046 228.657V206.554C38.2059 205.604 38.4466 204.669 38.9045 203.836C39.3726 202.969 39.9986 202.197 40.7504 201.561C41.5458 200.89 42.4567 200.369 43.4384 200.025C44.5036 199.643 45.6277 199.452 46.7593 199.459H70.9815V213.346H57.2221V209.093H53.1682V227.938H57.2213V222.268H71.0106V237.745L46.6841 237.636Z" fill="#D20A2D"/>
<path d="M71.0105 238.088L46.6783 237.971C45.368 237.995 44.0693 237.721 42.8798 237.171C41.8184 236.665 40.8757 235.941 40.1134 235.045C39.3713 234.157 38.8008 233.138 38.4308 232.041C38.0556 230.95 37.8625 229.806 37.8594 228.653V206.554C37.8621 205.547 38.1166 204.558 38.5997 203.675C39.0884 202.771 39.7412 201.966 40.5248 201.302C41.3517 200.606 42.2981 200.066 43.3179 199.707C44.4201 199.313 45.5829 199.115 46.7535 199.122H70.9814C71.0261 199.122 71.0704 199.131 71.1117 199.148C71.1531 199.165 71.1906 199.19 71.2222 199.222C71.2539 199.253 71.2789 199.291 71.296 199.332C71.313 199.373 71.3218 199.418 71.3217 199.462V213.348C71.3218 213.393 71.313 213.437 71.296 213.478C71.2789 213.52 71.2539 213.557 71.2222 213.589C71.1906 213.62 71.1531 213.646 71.1117 213.663C71.0704 213.68 71.0261 213.688 70.9814 213.688H57.222C57.1317 213.688 57.0452 213.652 56.9814 213.589C56.9176 213.525 56.8817 213.438 56.8817 213.348V209.436H53.5084V227.601H56.8817V222.271C56.8817 222.181 56.9176 222.094 56.9814 222.031C57.0452 221.967 57.1317 221.931 57.222 221.931H71.0105C71.1007 221.931 71.1873 221.967 71.2511 222.031C71.3149 222.094 71.3508 222.181 71.3508 222.271V237.748C71.3503 237.838 71.3143 237.924 71.2506 237.988C71.1869 238.052 71.1006 238.088 71.0105 238.088ZM46.7535 199.803C45.6621 199.795 44.5779 199.979 43.5498 200.346C42.6058 200.677 41.7296 201.176 40.9636 201.819C40.2439 202.429 39.6442 203.168 39.1953 203.997C38.7632 204.78 38.5366 205.659 38.5366 206.554V228.653C38.5398 229.731 38.7206 230.801 39.0717 231.821C39.4145 232.838 39.9434 233.784 40.6315 234.608C41.3317 235.43 42.1976 236.094 43.1724 236.558C44.27 237.064 45.4678 237.314 46.6759 237.291L70.6654 237.406V222.611H57.5622V227.941C57.5623 227.986 57.5536 228.03 57.5365 228.072C57.5195 228.113 57.4944 228.151 57.4628 228.182C57.4312 228.214 57.3936 228.239 57.3523 228.256C57.311 228.273 57.2667 228.282 57.222 228.282H53.1681C53.1234 228.282 53.0791 228.273 53.0378 228.256C52.9964 228.239 52.9589 228.214 52.9273 228.182C52.8957 228.151 52.8706 228.113 52.8535 228.072C52.8365 228.03 52.8277 227.986 52.8279 227.941V209.096C52.8277 209.051 52.8365 209.007 52.8535 208.966C52.8706 208.924 52.8957 208.887 52.9273 208.855C52.9589 208.824 52.9964 208.799 53.0378 208.782C53.0791 208.765 53.1234 208.756 53.1681 208.756H57.2212C57.2659 208.756 57.3102 208.765 57.3515 208.782C57.3928 208.799 57.4304 208.824 57.462 208.855C57.4936 208.887 57.5187 208.924 57.5357 208.966C57.5528 209.007 57.5615 209.051 57.5614 209.096V213.009H70.6412V199.803H46.7535ZM194.799 238.088H172.457C172.367 238.088 172.28 238.052 172.216 237.989C172.152 237.925 172.117 237.838 172.117 237.748V228.476C172.117 228.431 172.125 228.387 172.142 228.345C172.159 228.304 172.184 228.266 172.216 228.235C172.248 228.203 172.285 228.178 172.327 228.161C172.368 228.144 172.412 228.135 172.457 228.135H179.101L172.388 226.741C172.311 226.725 172.243 226.683 172.193 226.622C172.144 226.562 172.117 226.486 172.117 226.408V217.194C172.124 216.473 172.277 215.761 172.567 215.101C172.856 214.44 173.277 213.846 173.803 213.352C174.383 212.784 175.073 212.34 175.831 212.048C176.589 211.757 177.398 211.623 178.21 211.655H199.737C199.827 211.655 199.913 211.691 199.977 211.755C200.041 211.818 200.077 211.905 200.077 211.995V221.094C200.077 221.185 200.041 221.271 199.977 221.335C199.913 221.399 199.827 221.435 199.737 221.435H194.143L200.327 222.774C200.403 222.79 200.471 222.832 200.52 222.892C200.569 222.953 200.596 223.028 200.596 223.106V233.149C200.593 233.825 200.438 234.491 200.143 235.098C199.848 235.705 199.419 236.238 198.89 236.657C197.747 237.619 196.292 238.128 194.799 238.088ZM172.797 237.408H194.799C196.13 237.444 197.429 236.99 198.447 236.132C198.903 235.778 199.273 235.325 199.527 234.807C199.782 234.288 199.914 233.719 199.915 233.141V223.373L190.893 221.419C190.81 221.401 190.737 221.354 190.688 221.286C190.638 221.218 190.616 221.134 190.625 221.05C190.634 220.967 190.674 220.889 190.736 220.833C190.799 220.777 190.88 220.746 190.964 220.747H199.396V212.327H178.21C177.488 212.297 176.768 212.414 176.093 212.672C175.418 212.929 174.803 213.322 174.285 213.826C173.82 214.254 173.448 214.774 173.192 215.352C172.936 215.931 172.802 216.555 172.797 217.188V226.127L182.479 228.139C182.562 228.156 182.635 228.203 182.684 228.271C182.734 228.339 182.756 228.423 182.748 228.507C182.739 228.59 182.7 228.668 182.637 228.724C182.575 228.781 182.494 228.812 182.41 228.812H172.797V237.408ZM170.615 238.088H153.141C153.051 238.088 152.964 238.052 152.901 237.989C152.837 237.925 152.801 237.838 152.801 237.748V229.122C152.801 229.078 152.81 229.033 152.827 228.992C152.844 228.951 152.869 228.913 152.9 228.881C152.932 228.85 152.97 228.825 153.011 228.808C153.052 228.791 153.096 228.782 153.141 228.782H155.602V220.717H153.141C153.051 220.717 152.964 220.681 152.901 220.617C152.837 220.554 152.801 220.467 152.801 220.377V211.694C152.801 211.65 152.81 211.605 152.827 211.564C152.844 211.523 152.869 211.485 152.9 211.454C152.932 211.422 152.97 211.397 153.011 211.38C153.052 211.363 153.096 211.354 153.141 211.354H155.528V204.78C155.522 203.42 155.993 202.102 156.859 201.054C157.327 200.487 157.922 200.038 158.596 199.743C159.27 199.448 160.004 199.316 160.738 199.357H171.428C171.473 199.357 171.517 199.365 171.558 199.382C171.6 199.399 171.637 199.424 171.669 199.456C171.701 199.488 171.726 199.525 171.743 199.567C171.76 199.608 171.768 199.652 171.768 199.697V208.562C171.768 208.651 171.733 208.737 171.671 208.8C171.609 208.864 171.524 208.9 171.435 208.902L168.23 208.956V211.354H171.5C171.545 211.354 171.589 211.363 171.63 211.38C171.672 211.397 171.709 211.422 171.741 211.454C171.772 211.485 171.798 211.523 171.815 211.564C171.832 211.605 171.84 211.65 171.84 211.694V220.496C171.84 220.541 171.832 220.585 171.815 220.627C171.798 220.668 171.772 220.706 171.741 220.737C171.709 220.769 171.672 220.794 171.63 220.811C171.589 220.828 171.545 220.837 171.5 220.837H168.301V228.782H170.616C170.661 228.782 170.705 228.791 170.746 228.808C170.788 228.825 170.825 228.85 170.857 228.881C170.888 228.913 170.913 228.951 170.93 228.992C170.947 229.033 170.956 229.078 170.956 229.122V237.748C170.956 237.793 170.947 237.837 170.93 237.879C170.913 237.92 170.888 237.958 170.856 237.989C170.824 238.021 170.786 238.046 170.745 238.063C170.703 238.08 170.659 238.089 170.614 238.088H170.615ZM153.481 237.408H170.275V229.462H167.96C167.87 229.462 167.784 229.426 167.72 229.363C167.656 229.299 167.621 229.212 167.621 229.122V220.496C167.621 220.406 167.656 220.32 167.72 220.256C167.784 220.193 167.87 220.157 167.96 220.157H171.159V212.035H167.89C167.8 212.035 167.713 211.999 167.649 211.935C167.585 211.871 167.55 211.785 167.55 211.694V208.623C167.55 208.534 167.585 208.449 167.647 208.385C167.709 208.321 167.794 208.285 167.883 208.283L171.087 208.23V200.04H160.738C160.106 199.997 159.473 200.106 158.891 200.356C158.309 200.606 157.795 200.992 157.391 201.48C156.623 202.408 156.205 203.575 156.209 204.78V211.694C156.209 211.785 156.173 211.871 156.109 211.935C156.046 211.999 155.959 212.035 155.869 212.035H153.483V220.036H155.944C155.989 220.036 156.033 220.044 156.074 220.061C156.116 220.079 156.153 220.104 156.185 220.135C156.216 220.167 156.241 220.204 156.259 220.246C156.276 220.287 156.284 220.331 156.284 220.376V229.122C156.284 229.212 156.248 229.299 156.185 229.363C156.121 229.427 156.034 229.462 155.944 229.462H153.483L153.481 237.408ZM147.024 238.088H130.874C129.919 238.099 128.97 237.943 128.07 237.627C127.261 237.341 126.512 236.908 125.86 236.35C125.246 235.822 124.752 235.169 124.41 234.435C124.075 233.716 123.901 232.931 123.902 232.138V217.602C123.923 216.122 124.477 214.7 125.462 213.595C125.997 212.999 126.648 212.519 127.376 212.184C128.172 211.82 129.04 211.636 129.915 211.647H145.029C145.935 211.648 146.838 211.751 147.721 211.953C148.559 212.137 149.363 212.449 150.106 212.879C150.787 213.275 151.376 213.811 151.834 214.453C152.294 215.117 152.534 215.908 152.52 216.716V227.823C152.521 227.867 152.512 227.912 152.495 227.953C152.478 227.994 152.453 228.032 152.421 228.063C152.389 228.095 152.352 228.12 152.311 228.137C152.269 228.154 152.225 228.163 152.18 228.163H137.779V229.017H152.183C152.273 229.017 152.359 229.053 152.423 229.117C152.487 229.181 152.523 229.267 152.523 229.357V233.256C152.524 233.896 152.372 234.527 152.08 235.096C151.783 235.67 151.382 236.185 150.898 236.613C150.377 237.067 149.782 237.427 149.139 237.678C148.467 237.951 147.749 238.09 147.024 238.088ZM129.915 212.327C129.14 212.317 128.371 212.478 127.665 212.799C127.019 213.095 126.442 213.52 125.967 214.048C125.092 215.028 124.599 216.29 124.579 217.604V232.14C124.578 232.835 124.73 233.522 125.024 234.152C125.325 234.799 125.761 235.374 126.303 235.838C126.892 236.342 127.569 236.732 128.299 236.991C129.125 237.279 129.996 237.421 130.871 237.41H147.021C147.658 237.414 148.29 237.292 148.88 237.051C149.451 236.83 149.979 236.511 150.441 236.108C150.863 235.737 151.212 235.29 151.469 234.79C151.712 234.317 151.838 233.792 151.838 233.26V229.704H137.44C137.395 229.704 137.351 229.696 137.309 229.678C137.268 229.661 137.23 229.636 137.199 229.605C137.167 229.573 137.142 229.536 137.125 229.494C137.108 229.453 137.099 229.409 137.099 229.364V227.828C137.099 227.784 137.108 227.739 137.125 227.698C137.142 227.657 137.168 227.62 137.199 227.588C137.231 227.556 137.268 227.532 137.31 227.515C137.351 227.497 137.395 227.489 137.44 227.489H151.842V216.717C151.857 216.049 151.659 215.393 151.277 214.845C150.874 214.281 150.356 213.811 149.757 213.464C149.076 213.07 148.337 212.785 147.569 212.617C146.735 212.425 145.883 212.328 145.028 212.327H129.915ZM123.359 238.088H106.013C105.923 238.088 105.837 238.052 105.773 237.988C105.709 237.925 105.673 237.838 105.673 237.748V229.243C105.673 229.152 105.709 229.066 105.773 229.002C105.836 228.938 105.923 228.902 106.013 228.902H108.27V220.896H105.957C105.912 220.897 105.868 220.888 105.826 220.871C105.785 220.854 105.747 220.829 105.716 220.797C105.684 220.765 105.659 220.728 105.642 220.687C105.625 220.645 105.616 220.601 105.616 220.556V211.811C105.616 211.766 105.625 211.722 105.642 211.68C105.659 211.639 105.684 211.602 105.716 211.57C105.747 211.538 105.785 211.513 105.826 211.496C105.868 211.479 105.912 211.47 105.957 211.471H120.704C120.748 211.471 120.793 211.479 120.834 211.497C120.875 211.514 120.912 211.539 120.944 211.57C120.975 211.602 121 211.639 121.018 211.681C121.035 211.722 121.043 211.766 121.043 211.811V228.902H123.359C123.403 228.902 123.447 228.911 123.489 228.928C123.53 228.945 123.567 228.971 123.599 229.002C123.63 229.034 123.655 229.071 123.672 229.113C123.689 229.154 123.698 229.198 123.698 229.243V237.748C123.698 237.838 123.662 237.925 123.599 237.988C123.535 238.052 123.449 238.088 123.359 238.088ZM106.353 237.408H123.018V229.582H120.704C120.659 229.582 120.615 229.574 120.574 229.557C120.532 229.539 120.495 229.515 120.463 229.483C120.432 229.451 120.406 229.414 120.389 229.373C120.372 229.332 120.363 229.287 120.363 229.243V212.15H106.296V220.217H108.61C108.655 220.217 108.699 220.225 108.74 220.242C108.781 220.259 108.819 220.284 108.85 220.316C108.882 220.347 108.907 220.385 108.924 220.426C108.941 220.467 108.95 220.512 108.95 220.556V229.243C108.95 229.287 108.941 229.332 108.924 229.373C108.907 229.414 108.882 229.451 108.85 229.483C108.819 229.515 108.781 229.539 108.74 229.557C108.699 229.574 108.655 229.582 108.61 229.582H106.353L106.353 237.408ZM104.963 238.088H89.4461C89.3559 238.088 89.2695 238.052 89.2058 237.988C89.142 237.925 89.1061 237.838 89.1059 237.748V220.896H88.3834V237.748C88.3834 237.838 88.3476 237.925 88.284 237.988C88.2204 238.052 88.134 238.088 88.0439 238.088H71.9989C71.9087 238.088 71.8221 238.052 71.7583 237.989C71.6945 237.925 71.6587 237.838 71.6587 237.748V229.122C71.6586 229.078 71.6673 229.033 71.6844 228.992C71.7014 228.951 71.7265 228.913 71.7581 228.881C71.7897 228.85 71.8273 228.825 71.8686 228.808C71.9099 228.791 71.9542 228.782 71.9989 228.782H74.531L74.6457 208.665H71.969C71.8788 208.665 71.7924 208.629 71.7287 208.565C71.6649 208.502 71.629 208.415 71.6288 208.325V199.82C71.629 199.73 71.6649 199.643 71.7287 199.579C71.7924 199.516 71.8788 199.48 71.969 199.479H88.115C88.2052 199.48 88.2916 199.516 88.3554 199.579C88.4192 199.643 88.4551 199.73 88.4553 199.82V211.929L88.9321 211.546C88.9923 211.497 89.0673 211.471 89.1447 211.471H96.4475C97.3129 211.43 98.1769 211.575 98.9822 211.894C99.7875 212.214 100.516 212.701 101.118 213.324C102.24 214.511 102.854 216.088 102.83 217.721V228.902H104.963C105.008 228.902 105.052 228.911 105.094 228.928C105.135 228.945 105.173 228.97 105.204 229.002C105.236 229.033 105.261 229.071 105.278 229.112C105.295 229.154 105.304 229.198 105.304 229.243V237.748C105.304 237.793 105.295 237.837 105.278 237.878C105.261 237.92 105.236 237.957 105.204 237.989C105.172 238.02 105.135 238.045 105.094 238.062C105.052 238.08 105.008 238.088 104.963 238.088ZM89.7823 237.408H104.623V229.582H102.489C102.399 229.582 102.313 229.546 102.249 229.483C102.185 229.419 102.149 229.333 102.149 229.243V217.721C102.179 216.259 101.629 214.845 100.62 213.787C100.08 213.234 99.4292 212.802 98.7098 212.52C97.9904 212.238 97.2192 212.112 96.4475 212.15H89.2643L88.3276 212.904C88.2776 212.944 88.2173 212.969 88.1537 212.976C88.09 212.983 88.0257 212.972 87.9679 212.945C87.9102 212.917 87.8614 212.873 87.8272 212.819C87.7931 212.765 87.7749 212.702 87.7748 212.638V200.16H72.3093V207.985H74.9892C75.0339 207.985 75.0782 207.993 75.1196 208.011C75.1609 208.028 75.1984 208.053 75.2301 208.084C75.2617 208.116 75.2867 208.153 75.3038 208.195C75.3209 208.236 75.3296 208.28 75.3295 208.325V229.122C75.3295 229.212 75.2936 229.299 75.2298 229.363C75.166 229.427 75.0795 229.462 74.9892 229.462H72.3416V237.408H87.6972V220.555C87.6972 220.511 87.706 220.467 87.7231 220.425C87.7402 220.384 87.7653 220.347 87.7969 220.315C87.8285 220.284 87.866 220.259 87.9073 220.242C87.9486 220.225 87.9928 220.216 88.0374 220.216H89.4397C89.4843 220.216 89.5285 220.225 89.5698 220.242C89.6111 220.259 89.6486 220.284 89.6802 220.315C89.7118 220.347 89.7369 220.384 89.754 220.425C89.7711 220.467 89.7799 220.511 89.7799 220.555L89.7823 237.408Z" fill="black"/>
<path d="M70.9961 199.461H46.7504C45.6218 199.456 44.5008 199.646 43.4368 200.022C42.4584 200.371 41.5504 200.893 40.7561 201.563C40.0016 202.197 39.3738 202.967 38.9061 203.834C38.4495 204.666 38.2092 205.6 38.207 206.549V228.65C38.2087 229.765 38.3955 230.872 38.7598 231.926C39.1135 232.984 39.6632 233.966 40.3803 234.821C41.1111 235.681 42.0156 236.377 43.0343 236.862C44.1767 237.39 45.4236 237.652 46.6817 237.629C54.5675 237.668 62.4473 237.707 70.3213 237.747H71.0098V222.274H57.2197V227.936H53.1682V209.091H57.2181V213.347H70.9961V199.461ZM46.6841 236.25H46.6761C45.6266 236.273 44.5855 236.058 43.6308 235.622C42.7865 235.221 42.0368 234.645 41.4309 233.934C40.8226 233.21 40.3564 232.379 40.057 231.482C39.7416 230.572 39.5778 229.617 39.5721 228.654V206.549C39.5774 205.829 39.7609 205.121 40.1063 204.489C40.4964 203.774 41.0138 203.137 41.6329 202.608C42.3063 202.044 43.0756 201.606 43.904 201.315C44.816 200.995 45.7765 200.835 46.7431 200.841H69.6149V211.967H58.596V207.714H51.7862V229.312H58.596V223.65H69.6278V236.363C61.9799 236.321 55.0263 236.291 47.3743 236.25H46.6841Z" fill="white"/>
<path d="M88.1137 199.479H71.9717V208.328H74.9895V229.129H71.9992V237.746H88.0417V220.555H89.4375V237.746H105.09V229.238H102.496V217.717C102.524 216.17 101.939 214.675 100.868 213.558C100.332 212.973 99.666 212.521 98.924 212.238C98.1326 211.94 97.2917 211.795 96.4461 211.81H89.1473L88.1137 212.637V199.479ZM73.348 200.866H86.7333V215.51L88.9744 213.713L89.6322 213.186H96.4461C97.1217 213.174 97.7939 213.284 98.431 213.509C98.9764 213.722 99.4664 214.057 99.8639 214.487C100.69 215.355 101.141 216.514 101.12 217.713V230.609H103.714V236.363H90.817V219.182H86.6662V236.369H73.3795V230.496H76.3698V206.944H73.3472L73.348 200.866Z" fill="white"/>
<path d="M120.704 211.809H105.96V220.555H108.611V229.236H106.003V237.746H123.355V229.236H120.704V211.809ZM107.336 213.183H119.319V230.61H121.97V236.367H107.379V230.61H109.984V219.181H107.333L107.336 213.183Z" fill="white"/>
<path d="M151.557 214.647C151.124 214.045 150.569 213.54 149.929 213.165C149.22 212.756 148.451 212.459 147.651 212.285C146.792 212.087 145.914 211.987 145.034 211.988H129.92C129.093 211.976 128.273 212.146 127.518 212.485C126.832 212.803 126.219 213.259 125.716 213.823C125.232 214.356 124.854 214.976 124.603 215.651C124.37 216.275 124.245 216.935 124.235 217.602V232.134C124.237 232.879 124.402 233.615 124.72 234.289C125.038 234.981 125.502 235.595 126.081 236.09C126.702 236.62 127.414 237.032 128.182 237.308C129.046 237.609 129.956 237.757 130.871 237.745H147.02C147.703 237.747 148.379 237.618 149.013 237.365C149.618 237.129 150.178 236.789 150.668 236.361C151.122 235.963 151.498 235.483 151.776 234.947C152.041 234.42 152.179 233.839 152.18 233.25V229.351H137.438V227.829H152.181V216.718C152.198 215.979 151.98 215.254 151.557 214.647ZM150.805 226.446H136.062V230.739H150.805V233.254C150.811 233.624 150.723 233.99 150.55 234.318L150.554 234.325C150.353 234.705 150.085 235.045 149.764 235.329C149.387 235.65 148.96 235.907 148.5 236.089C148.03 236.278 147.529 236.373 147.023 236.371H130.873C130.12 236.38 129.371 236.261 128.658 236.018C128.049 235.798 127.482 235.474 126.985 235.058C126.556 234.688 126.212 234.229 125.977 233.713C125.739 233.222 125.616 232.683 125.616 232.137V217.602C125.624 217.098 125.72 216.6 125.898 216.128C126.09 215.614 126.379 215.142 126.748 214.736C127.129 214.313 127.594 213.974 128.113 213.741C128.68 213.481 129.298 213.351 129.922 213.363H145.035C145.812 213.363 146.587 213.452 147.343 213.63C148.009 213.769 148.648 214.015 149.235 214.357C149.708 214.631 150.116 215.001 150.435 215.444C150.693 215.817 150.823 216.264 150.807 216.718L150.805 226.446Z" fill="white"/>
<path d="M171.427 199.704H160.673C159.992 199.693 159.315 199.821 158.684 200.08C158.071 200.336 157.534 200.746 157.124 201.268C156.306 202.256 155.863 203.501 155.872 204.784V211.695H153.141V220.376H155.938V229.13H153.141V237.748H170.614V229.126H167.963V220.497H171.498V211.688H167.891V208.616C168.839 208.597 169.798 208.582 170.742 208.571L171.426 208.556L171.427 199.704ZM157.248 204.784C157.235 203.812 157.572 202.868 158.199 202.125C158.471 201.784 158.824 201.517 159.226 201.347C159.704 201.157 160.216 201.065 160.73 201.076H170.051V207.209C169.323 207.224 168.596 207.235 167.862 207.247L167.186 207.262L166.509 207.269V213.074H170.119V219.124H166.58V230.496H169.239V236.365H154.515V230.496H157.316V218.997H154.515V213.07H157.244V204.78L157.248 204.784Z" fill="white"/>
<path d="M199.737 211.988H178.211C177.423 211.976 176.639 212.108 175.898 212.376C175.198 212.638 174.565 213.052 174.044 213.588C173.55 214.07 173.147 214.639 172.856 215.265C172.593 215.87 172.457 216.523 172.458 217.183V226.406L173.011 226.523C175.94 227.136 178.87 227.743 181.801 228.343L181.79 228.474H172.457V237.747H194.829C196.233 237.783 197.6 237.299 198.668 236.389C199.163 235.984 199.566 235.479 199.853 234.908C200.123 234.359 200.261 233.755 200.257 233.144V223.095L199.708 222.975C196.993 222.395 194.282 221.801 191.567 221.218L191.579 221.087H199.742L199.737 211.988ZM173.831 236.368V229.849H183.028L183.299 227.251L182.694 227.119C179.738 226.51 176.784 225.897 173.831 225.28V217.181C173.826 216.713 173.922 216.25 174.113 215.823C174.339 215.35 174.644 214.919 175.015 214.548C175.406 214.161 175.874 213.861 176.389 213.668C176.971 213.455 177.589 213.351 178.209 213.364H198.36V219.711H190.346L190.064 222.305L190.67 222.433C193.404 223.026 196.138 223.616 198.874 224.204V233.142C198.882 233.543 198.791 233.941 198.612 234.3C198.409 234.702 198.123 235.055 197.773 235.337C196.944 236.042 195.881 236.41 194.795 236.368H173.831Z" fill="white"/>
<path d="M140.294 219.375H135.976V222.346H140.294V219.375Z" fill="white"/>
<path d="M205.676 150.635L202.851 156.969L210.296 160.294L218.475 177.697L221.823 170.193L216.761 159.38L228.052 156.239L231.528 148.451L213.124 153.959L205.676 150.635Z" fill="black"/>
<path d="M213.255 107.751L212.458 129.264C212.272 134.292 213.967 136.607 218.339 136.769C221.586 136.89 223.32 135.702 223.893 132.848C224.153 133.883 224.76 134.797 225.614 135.437C226.467 136.078 227.514 136.406 228.581 136.367C232.857 136.528 235.011 134.135 235.199 129.046L235.956 108.591L213.255 107.751ZM221.764 127.827C221.767 128.089 221.713 128.348 221.606 128.588C221.5 128.827 221.343 129.04 221.147 129.214C220.951 129.387 220.72 129.517 220.469 129.593C220.219 129.67 219.955 129.692 219.695 129.658C218.352 129.609 217.629 128.895 217.675 127.676L218.147 114.872L222.238 115.026L221.764 127.827ZM230.157 127.514C230.156 127.758 230.103 127.999 230.002 128.221C229.901 128.444 229.754 128.642 229.571 128.803C229.388 128.965 229.172 129.086 228.939 129.158C228.706 129.231 228.46 129.253 228.218 129.224C227.97 129.251 227.719 129.221 227.485 129.137C227.25 129.053 227.037 128.917 226.863 128.739C226.689 128.561 226.558 128.345 226.479 128.109C226.4 127.872 226.376 127.621 226.409 127.374L226.862 115.197L230.607 115.337L230.157 127.514Z" fill="black"/>
<path d="M211.747 68.7954C208.781 69.6731 207.007 70.9501 206.111 73.2041C205.201 75.526 205.778 78.0266 206.802 81.4719L208.993 88.8733C211.05 95.8237 213.267 98.6839 217.673 97.3827L224.832 95.2588L220.468 80.5174L216.066 81.8227L218.381 89.6451C218.171 89.7422 217.955 89.8272 217.735 89.8997C215.876 90.4485 214.966 89.0228 213.936 85.5492L212.8 81.7135C211.648 77.8197 211.901 76.1451 215.317 75.1341L218.342 74.2402C222.059 73.1387 222.928 73.9873 224.206 78.3014L225.35 82.1661C226.381 85.6413 226.623 87.2327 224.228 87.9423C224.207 87.9498 224.186 87.956 224.165 87.9609L226.144 94.6413C226.572 94.5484 226.992 94.4231 227.382 94.31C229.991 93.5374 231.609 92.4043 232.269 90.6731C233.03 88.7206 232.437 86.0608 231.309 82.2591L229.106 74.8237C226.908 67.3932 224.208 65.098 217.676 67.0336L211.747 68.7954Z" fill="black"/>
<path d="M206.872 60.8623L218.568 50.4997L213.965 45.307L203.886 54.2392C201.478 56.3728 200.094 55.8046 197.732 53.1368L195.122 50.1909C192.282 46.9865 191.808 45.6497 194.314 43.4329L204.396 34.504L199.789 29.3105L188.098 39.6732C183.815 43.4652 184.486 46.7117 189.832 52.7489L194.97 58.5468C199.425 63.5746 202.662 64.5905 206.872 60.8623Z" fill="black"/>
<path d="M179.678 13.4055L163.676 4.62695L152.751 24.5456L158.859 27.8963L161.657 22.8048L170.725 27.78C172.723 28.8735 173.267 29.6388 172.335 31.336L170.668 34.378L176.752 37.7126L178.989 33.6305C180.103 31.6051 179.723 29.7592 177.914 28.1226C180.737 28.888 182.461 27.6935 184.264 24.405C187.104 19.2237 185.704 16.7094 179.678 13.4055ZM177.695 21.6919C176.66 23.5806 175.755 24.0526 174.058 23.1208L164.389 17.8158L167.064 12.94L176.74 18.2449C178.297 19.1008 178.538 20.1587 177.695 21.6919Z" fill="black"/>
<path d="M101.267 12.4011C103.732 10.8251 104.009 8.74888 102.79 5.20093C100.867 -0.381236 98.0656 -1.03829 91.5646 1.19797L74.3081 7.13493L81.6974 28.6158L88.2874 26.3529L86.3986 20.8572L96.1777 17.4903C98.3364 16.75 99.2642 16.8591 99.8954 18.692L101.027 21.9701L107.586 19.7128L106.069 15.3122C105.315 13.1252 103.694 12.1603 101.267 12.4011ZM94.9792 11.8879L84.5487 15.4779L82.7399 10.2157L93.1656 6.62981C94.8482 6.04872 95.793 6.58617 96.3652 8.23811C97.0683 10.2764 96.8105 11.2591 94.9792 11.8879Z" fill="black"/>
<path d="M56.1533 39.7293L53.9664 37.0389L67.0372 26.4184L64.0202 22.7088L50.9494 33.3293L48.7834 30.6598L62.6552 19.388L59.1646 15.0957L39.9111 30.7423L54.2363 48.3721L73.7088 32.551L70.2441 28.2829L56.1533 39.7293Z" fill="black"/>
<path d="M36.6428 42.3767L32.0968 39.1738L17.1582 60.3726L21.7051 63.5787L27.1757 55.8128L41.1994 65.6938L45.1959 60.0235L31.1722 50.1426L36.6428 42.3767Z" fill="black"/>
<path d="M34.6034 77.9586L29.3025 76.4845L24.4372 93.9721L21.0953 93.0435L25.6082 76.8191L21.0032 75.5381L16.4902 91.7625L13.1783 90.8412L17.97 73.6219L12.6424 72.1396L5.99023 96.0419L27.8768 102.13L34.6034 77.9586Z" fill="black"/>
<path d="M30.6519 141.595L29.7961 132.603L21.1501 125.863L28.3761 117.703L27.5323 108.807L17.0881 120.757L5 111.832L5.79445 120.167L14.4017 126.506L7.13766 134.29L7.95717 142.906L18.1145 131.55L30.6519 141.595Z" fill="black"/>
<path d="M29.3191 151.245L37.7291 167.335L34.6556 168.941L26.8501 154.013L22.6144 156.232L30.4199 171.156L27.373 172.748L19.0915 156.909L14.1914 159.471L25.6855 181.458L45.8183 170.933L34.1917 148.696L29.3191 151.245Z" fill="black"/>
<path d="M136.007 171.023C132.725 166.917 127.683 167.863 129.017 168.41C130.108 168.869 131.05 169.619 131.742 170.578C132.946 172.305 133.01 174.538 132.154 177.087C132.076 177.31 132.047 177.547 132.07 177.783C132.093 178.018 132.167 178.245 132.287 178.449L133.159 179.89C133.176 179.917 133.185 179.949 133.185 179.98C133.186 180.012 133.178 180.044 133.162 180.072C133.146 180.099 133.123 180.122 133.096 180.139C133.068 180.155 133.037 180.163 133.005 180.163H131.613C131.357 180.164 131.106 180.232 130.884 180.36C130.662 180.487 130.477 180.67 130.347 180.89C129.923 181.596 129.448 182.315 128.922 183.048C128.796 183.22 128.718 183.423 128.693 183.635C128.669 183.848 128.699 184.063 128.782 184.26L129.805 186.641C129.828 186.693 129.837 186.751 129.832 186.808C129.826 186.865 129.807 186.92 129.774 186.967C129.742 187.015 129.699 187.054 129.647 187.08C129.596 187.106 129.539 187.118 129.482 187.117L126.517 187.006C126.274 186.997 126.032 187.041 125.807 187.134C125.583 187.228 125.381 187.369 125.217 187.548C124.578 188.239 123.905 188.933 123.196 189.63C123.045 189.779 122.933 189.963 122.872 190.167C122.811 190.37 122.803 190.585 122.848 190.792L123.548 193.965C123.557 194.007 123.555 194.051 123.543 194.092C123.531 194.134 123.508 194.171 123.478 194.202C123.447 194.232 123.409 194.254 123.367 194.266C123.326 194.278 123.282 194.279 123.24 194.269L119.903 193.503C119.676 193.451 119.44 193.452 119.213 193.507C118.987 193.563 118.777 193.67 118.599 193.821C117.163 195.039 115.665 196.182 114.11 197.244L113.899 197.39C113.035 197.985 112.1 198.612 110.996 199.36L120.051 205.286C120.482 204.949 120.905 204.608 121.319 204.263L121.781 205.114C121.823 204.207 121.709 203.982 122.291 203.432C135.513 191.945 140.55 176.706 136.007 171.023Z" fill="black"/>
<path d="M113.648 210.801C116.857 210.801 119.458 208.24 119.458 205.081C119.458 201.921 116.857 199.36 113.648 199.36C110.439 199.36 107.838 201.921 107.838 205.081C107.838 208.24 110.439 210.801 113.648 210.801Z" fill="white"/>
<path d="M113.648 209.473C116.112 209.473 118.109 207.507 118.109 205.081C118.109 202.655 116.112 200.688 113.648 200.688C111.184 200.688 109.187 202.655 109.187 205.081C109.187 207.507 111.184 209.473 113.648 209.473Z" fill="#D20A2D"/>
<path d="M112.931 197.414C112.931 197.414 113.723 197.462 115.817 196.032C117.925 194.592 114.056 198.252 114.056 198.252L112.931 197.414Z" fill="black"/>
<path d="M195.805 173.379H198.605C198.995 173.367 199.384 173.436 199.745 173.583C200.019 173.703 200.249 173.905 200.402 174.161C200.555 174.418 200.624 174.716 200.6 175.013C200.619 175.312 200.548 175.61 200.396 175.867C200.243 176.125 200.017 176.33 199.745 176.457C199.954 176.534 200.138 176.666 200.279 176.838C200.418 177.067 200.487 177.33 200.478 177.597L200.508 178.412C200.509 178.584 200.528 178.755 200.565 178.924C200.576 179.002 200.606 179.077 200.652 179.142C200.698 179.207 200.759 179.26 200.829 179.297V179.431H199.823C199.793 179.368 199.771 179.3 199.758 179.231C199.734 179.072 199.719 178.912 199.715 178.751L199.667 177.744C199.678 177.583 199.642 177.422 199.563 177.281C199.485 177.139 199.367 177.023 199.225 176.947C198.989 176.86 198.738 176.824 198.488 176.838H196.622V179.431H195.802L195.805 173.379ZM198.519 176.154C198.838 176.171 199.155 176.09 199.429 175.924C199.55 175.824 199.644 175.696 199.704 175.551C199.763 175.405 199.785 175.248 199.767 175.092C199.786 174.915 199.751 174.736 199.667 174.578C199.584 174.421 199.456 174.291 199.298 174.207C199.086 174.117 198.857 174.076 198.627 174.086H196.622V176.154H198.519Z" fill="black"/>
<path d="M203.075 176.463C203.076 177.434 202.788 178.383 202.249 179.191C201.71 179.999 200.943 180.628 200.046 181C199.149 181.372 198.162 181.47 197.21 181.281C196.257 181.092 195.382 180.625 194.695 179.938C194.008 179.252 193.54 178.377 193.35 177.425C193.161 176.473 193.258 175.485 193.629 174.588C194 173.691 194.629 172.924 195.436 172.384C196.244 171.844 197.193 171.556 198.164 171.555C198.809 171.555 199.447 171.682 200.043 171.928C200.639 172.175 201.18 172.536 201.636 172.992C202.092 173.447 202.454 173.989 202.701 174.584C202.948 175.18 203.075 175.818 203.075 176.463ZM203.579 176.463C203.579 175.392 203.261 174.345 202.666 173.454C202.071 172.564 201.226 171.87 200.236 171.46C199.247 171.05 198.158 170.943 197.108 171.152C196.057 171.361 195.092 171.877 194.335 172.634C193.578 173.391 193.062 174.356 192.853 175.406C192.644 176.457 192.751 177.545 193.161 178.535C193.571 179.524 194.265 180.37 195.156 180.965C196.046 181.56 197.093 181.878 198.164 181.878C199.6 181.878 200.977 181.307 201.993 180.292C203.008 179.276 203.579 177.899 203.579 176.463Z" fill="black"/>
</g>
<defs>
<clipPath id="clip0_3972_172665">
<rect width="240" height="240" fill="white"/>
</clipPath>
</defs>
</svg>
