<svg width="240" height="240" viewBox="0 0 240 240" fill="none" xmlns="http://www.w3.org/2000/svg">
<path fill-rule="evenodd" clip-rule="evenodd" d="M224.136 12.258C156.058 -4.08601 85.078 -4.08601 17 12.258L17 98.3363C17.1105 155.756 57.657 211.215 120.567 240C183.479 211.215 224.025 155.754 224.136 98.3363V12.258Z" fill="#384044"/>
<path fill-rule="evenodd" clip-rule="evenodd" d="M120.568 233.908C61.0253 205.778 22.6285 152.799 22.5229 98.3254V47.4765C87.0463 32.6615 154.088 32.6615 218.612 47.4765V98.3359C218.507 152.799 180.11 205.778 120.568 233.908Z" fill="white"/>
<path d="M106.101 188.453V176.839H104.163V175.251C104.727 175.18 105.263 174.966 105.722 174.631C106.187 174.315 106.556 173.876 106.786 173.362H108.375V188.45L106.101 188.453Z" fill="#D70926"/>
<path d="M119.061 185.012C119.07 185.487 118.981 185.958 118.799 186.397C118.617 186.836 118.347 187.233 118.005 187.563C117.673 187.901 117.276 188.168 116.837 188.348C116.399 188.528 115.928 188.617 115.454 188.609H115.272C114.8 188.61 114.332 188.517 113.895 188.336C113.458 188.156 113.061 187.891 112.727 187.557C112.393 187.222 112.128 186.826 111.948 186.389C111.767 185.952 111.675 185.484 111.675 185.012V183.64C111.664 182.745 111.996 181.881 112.601 181.222C112.865 180.927 113.179 180.679 113.528 180.491C112.889 180.147 112.388 179.595 112.108 178.927C111.926 178.476 111.84 177.993 111.855 177.507V176.689C111.823 175.798 112.133 174.928 112.721 174.259C113.04 173.901 113.434 173.618 113.875 173.43C114.316 173.242 114.793 173.154 115.272 173.173H115.452C115.933 173.153 116.412 173.24 116.855 173.427C117.299 173.615 117.695 173.898 118.016 174.256C118.601 174.927 118.911 175.796 118.882 176.686V177.505C118.912 178.362 118.61 179.198 118.04 179.839C117.803 180.102 117.522 180.322 117.21 180.489C117.899 180.883 118.447 181.485 118.773 182.209C118.978 182.658 119.077 183.148 119.063 183.641L119.061 185.012ZM116.859 177.305C116.843 176.274 116.518 175.626 115.885 175.361C115.72 175.294 115.544 175.261 115.366 175.266C115.017 175.251 114.674 175.367 114.405 175.59C114.2 175.771 114.052 176.006 113.977 176.269C113.886 176.606 113.852 176.957 113.875 177.306C113.859 177.796 113.966 178.283 114.188 178.721C114.328 178.904 114.51 179.05 114.717 179.15C114.924 179.25 115.152 179.301 115.382 179.297C115.612 179.294 115.838 179.237 116.042 179.13C116.246 179.024 116.423 178.872 116.558 178.686C116.785 178.263 116.889 177.784 116.859 177.305ZM116.787 183.94C116.83 183.613 116.797 183.279 116.691 182.966C116.584 182.653 116.407 182.369 116.173 182.136C115.934 181.978 115.651 181.902 115.366 181.92C115.106 181.899 114.847 181.963 114.626 182.101C114.405 182.24 114.234 182.446 114.14 182.69C113.997 183.09 113.931 183.515 113.947 183.94V184.663C113.938 184.884 113.973 185.105 114.052 185.312C114.131 185.519 114.251 185.707 114.405 185.866C114.566 186.031 114.767 186.153 114.989 186.219C115.21 186.284 115.445 186.292 115.671 186.242C115.896 186.191 116.105 186.084 116.277 185.929C116.449 185.775 116.579 185.579 116.654 185.361C116.748 185.14 116.793 184.903 116.787 184.663V183.94Z" fill="#D70926"/>
<path d="M127.068 173.353V175.639L123.881 188.441H121.648L124.836 175.639H121.039V173.353H127.068Z" fill="#D70926"/>
<path d="M132.159 186.287C133.201 186.287 133.722 185.803 133.723 184.834V183.944C133.723 182.398 132.913 181.625 131.293 181.625V179.676C131.65 179.706 132.009 179.656 132.344 179.529C132.679 179.403 132.982 179.203 133.23 178.945C133.643 178.419 133.849 177.761 133.807 177.094V176.745C133.807 175.76 133.374 175.267 132.508 175.267C132.298 175.254 132.089 175.298 131.903 175.395C131.717 175.492 131.561 175.638 131.452 175.818C131.27 176.151 131.182 176.527 131.199 176.906V177.301H128.973V176.952C128.931 176.009 129.22 175.081 129.791 174.329C130.105 173.945 130.505 173.64 130.958 173.439C131.412 173.238 131.907 173.147 132.402 173.173C132.883 173.154 133.362 173.241 133.805 173.428C134.248 173.615 134.644 173.898 134.965 174.257C135.55 174.928 135.86 175.796 135.831 176.687V177.324C135.85 178.209 135.551 179.071 134.989 179.755C134.749 180.042 134.465 180.289 134.147 180.486C134.836 180.88 135.384 181.482 135.711 182.206C135.915 182.655 136.014 183.145 136 183.638V184.83C136.016 185.342 135.922 185.852 135.725 186.325C135.528 186.798 135.232 187.224 134.857 187.573C134.15 188.254 133.202 188.626 132.221 188.608C131.749 188.608 131.281 188.515 130.844 188.334C130.408 188.154 130.011 187.889 129.677 187.554C129.343 187.22 129.078 186.824 128.897 186.387C128.717 185.95 128.624 185.482 128.624 185.01V184.637L130.79 184.468L130.838 184.998C130.858 185.345 131.002 185.674 131.244 185.924C131.364 186.045 131.506 186.139 131.664 186.201C131.821 186.264 131.99 186.293 132.159 186.287Z" fill="#D70926"/>
<path d="M134.707 81.4356C136.115 83.8225 137.986 85.9042 140.21 87.5587C142.433 89.2133 144.965 90.4074 147.656 91.0712C155.956 93.2705 160.747 91.1045 160.747 91.1045L165.071 96.3632C165.247 95.5506 165.215 94.7066 164.978 93.9097C164.533 93.0537 161.756 86.627 161.756 86.627L162.259 84.1385C159.242 82.6064 156.08 81.3781 152.819 80.4716C149.234 79.4831 145.585 78.7382 141.899 78.2422L143.531 80.6145C140.571 80.6227 137.617 80.8975 134.707 81.4356Z" fill="#D70926"/>
<path d="M47.9851 120.583C43.8073 96.2527 56.6192 71.9917 69.3369 61.7373C53.2958 68.1176 47.0665 78.7465 38.5558 97.2232C38.5558 97.2232 38.1757 57.9664 78.0076 45.3916C48.7851 48.2569 29.4263 53.0097 29.4263 53.0097V98.3115C29.4742 123.121 38.019 148.218 54.1364 170.891C70.1954 193.48 92.958 212.515 119.951 225.938L120.566 226.243L121.181 225.938C130.006 221.556 138.481 216.501 146.53 210.818C63.188 179.269 50.1617 137.564 47.9851 120.583Z" fill="#D70926"/>
<path d="M131.458 43.415C159.673 48.7047 161.88 64.0749 161.88 64.0749C161.786 61.1815 161.394 58.3053 160.712 55.4919C173.399 65.4191 169.948 75.7376 169.948 75.7376C169.948 75.7376 177.006 80.4116 178.71 82.7109C180.578 85.2286 179.893 89.4925 179.893 89.4925C178.508 88.5864 177.071 87.7633 175.588 87.0275C174.069 86.3433 172.501 85.7714 170.897 85.3163C170.897 85.3163 176.501 90.7781 182.286 95.479C188.07 100.18 189.91 103.632 189.91 103.632C189.091 103.758 188.123 105.288 185.232 105.288C182.708 105.288 179.366 103.925 178.557 103.925C176.56 103.925 176.689 105.374 173.938 105.374C171.187 105.374 170.662 102.287 169.364 103.165C168.066 104.043 169.738 108.762 176.196 109.624C181.046 110.273 181.915 112.798 181.915 113.735C181.778 116.248 180.907 118.666 179.409 120.689C177.912 122.712 175.855 124.251 173.491 125.117C162.984 128.991 155.813 127.084 155.813 127.084C151.184 130.885 152.2 140.337 152.382 141.747C159.216 141.47 164.153 139.277 168.381 137.386C169.748 135.247 170.74 132.89 171.315 130.418C171.315 130.418 173.345 131.91 173.048 135.453V135.459C175.657 134.404 178.555 134.299 181.234 135.164C182.395 133.702 183.193 131.985 183.562 130.155C183.562 130.155 186.22 132.584 184.689 136.925C189.032 139.841 189.862 153.314 177.806 158.567C177.528 158.709 177.24 158.83 176.944 158.928C177.956 157.241 178.623 155.37 178.904 153.423C179.078 150.849 177.789 150.232 177.789 150.232C177.789 150.232 177.306 154.429 172.849 158.575C168.788 162.354 162.879 163.204 162.879 163.204C157.557 154.864 148.163 149.397 134.283 146.452C130.177 126.798 147.094 108.184 147.094 108.184C147.094 108.184 130.018 113.905 125.842 128.301C118.259 123.998 112.592 116.976 109.986 108.656C105.17 93.0969 114.881 83.5515 114.881 83.5515C114.881 83.5515 97.4402 92.0281 100.889 114.557C104.175 136.008 133.169 153.253 133.169 153.253C110.921 144.61 84.5917 129.67 77.2465 111.4C64.4021 79.459 82.1845 59.4561 82.1845 59.4561C82.1845 59.4561 62.7168 71.5956 62.0119 101.196C60.7221 155.393 150.073 176.847 177.707 182.711C181.009 178.896 184.106 174.959 186.997 170.9C203.115 148.232 211.659 123.145 211.707 98.3402V53.01C211.707 53.01 177.54 44.6195 131.458 43.415ZM188.046 127.236C187.366 126.394 186.625 125.603 185.829 124.87C184.87 124.074 183.847 123.358 182.771 122.729C184.99 119.017 185.767 116.404 185.954 114.058C185.954 111.459 187.406 111.501 189.314 110.114C190.04 109.643 190.644 109.006 191.078 108.257C191.511 107.508 191.762 106.667 191.809 105.802C196.525 113.227 190.808 123.037 188.046 127.236Z" fill="#D70926"/>
<path d="M110.668 6.62111C114.197 6.52527 117.726 6.47384 121.257 6.4668V9.90876C119.914 9.91201 118.572 9.92175 117.229 9.938V29.2221C116.078 29.2351 114.927 29.2529 113.777 29.2757V9.99404C112.434 10.0206 111.092 10.0536 109.75 10.0931L110.668 6.62111ZM106.701 17.7567C106.554 17.6292 105.123 16.4678 105.026 16.3866C104.141 15.6353 102.681 14.2254 102.681 12.7416C102.681 10.8842 103.632 10.3148 104.492 10.2791C105.433 10.239 106.375 10.2028 107.317 10.1703C107.621 9.01158 107.925 7.85316 108.23 6.69502C106.879 6.73941 105.528 6.79058 104.178 6.84852C100.245 7.02232 98.9965 10.1987 98.9957 12.6303C98.9957 15.7239 100.999 17.5569 102.295 18.6525C102.443 18.776 103.873 19.9285 103.97 20.0113C104.855 20.7585 106.315 22.1782 106.315 23.666C106.315 25.5235 105.372 26.0668 104.514 26.1025C103.23 26.1567 101.947 26.2165 100.665 26.282C100.358 27.4515 100.051 28.6213 99.7445 29.7914C101.435 29.7004 103.127 29.6192 104.818 29.5477C108.752 29.3902 110.003 26.278 110.003 23.8382C110.003 20.7447 107.998 18.8629 106.701 17.7567ZM56.1929 13.1387C56.7131 13.5786 57.1261 14.1312 57.4007 14.7547C57.6753 15.3781 57.8041 16.0559 57.7774 16.7366V29.1522C57.7745 30.6721 57.2065 32.1365 56.1839 33.261C55.2123 34.4362 53.8512 35.2238 52.3481 35.4806C51.6806 35.6259 50.9889 35.6177 50.3252 35.4566C49.6614 35.2955 49.0429 34.9858 48.5163 34.5507C47.9987 34.1169 47.5879 33.5698 47.3155 32.9519C47.0431 32.3339 46.9166 31.6616 46.9455 30.9869V18.5721C46.9519 17.0439 47.5169 15.5706 48.5341 14.4301C49.4909 13.2407 50.8477 12.44 52.3513 12.1771C53.0226 12.0337 53.7177 12.0458 54.3836 12.2125C55.0494 12.3792 55.6683 12.696 56.1929 13.1387ZM54.2112 17.2361C54.2219 16.9912 54.1762 16.7471 54.0776 16.5227C53.979 16.2982 53.8302 16.0994 53.6427 15.9415C53.4531 15.7844 53.2304 15.6722 52.9913 15.6134C52.7521 15.5546 52.5028 15.5507 52.262 15.602C51.7157 15.6973 51.2217 15.9855 50.8699 16.4142C50.4998 16.8222 50.2938 17.3528 50.2917 17.9037V30.3534C50.2812 30.5983 50.328 30.8423 50.4283 31.0659C50.5287 31.2895 50.6799 31.4866 50.8699 31.6415C51.0625 31.7971 51.2875 31.9078 51.5283 31.9654C51.7691 32.023 52.0198 32.0261 52.262 31.9745C52.8041 31.8818 53.2945 31.5963 53.6427 31.1705C54.0081 30.7629 54.2105 30.2349 54.2112 29.6874V17.2361ZM80.4247 8.4298C78.9306 8.57594 77.5494 9.28922 76.5652 10.4229C75.5332 11.5119 74.96 12.9565 74.9645 14.4569V26.8741C74.9419 27.5645 75.073 28.2514 75.3483 28.885C75.6236 29.5186 76.0362 30.0831 76.5563 30.5378C77.0776 31.0023 77.6933 31.3485 78.361 31.5526C79.0287 31.7568 79.7327 31.814 80.4247 31.7203C81.9053 31.5771 83.2776 30.8811 84.2678 29.7711C85.3048 28.7027 85.8808 27.2698 85.8719 25.7809V23.5532C84.6807 23.6571 83.4895 23.7654 82.2983 23.878V26.0709C82.3004 26.6102 82.091 27.1289 81.7152 27.5157C81.3538 27.9207 80.8529 28.1745 80.3126 28.2264C80.0632 28.2598 79.8094 28.2387 79.569 28.1645C79.3285 28.0904 79.107 27.9649 78.9197 27.7967C78.7322 27.6311 78.5836 27.4262 78.4845 27.1965C78.3854 26.9668 78.3382 26.718 78.3463 26.468V14.0159C78.3446 13.4734 78.5496 12.9506 78.9197 12.554C79.2734 12.1425 79.7725 11.8835 80.3126 11.8312C80.5645 11.7982 80.8206 11.8208 81.0629 11.8973C81.3051 11.9737 81.5278 12.1022 81.7152 12.2738C81.9047 12.4409 82.0552 12.6476 82.1559 12.8794C82.2567 13.1111 82.3053 13.3621 82.2983 13.6147V15.3365C83.4895 15.2217 84.6807 15.1134 85.8719 15.0116V13.3629C85.8916 12.6671 85.7599 11.9752 85.4861 11.3352C85.2122 10.6953 84.8027 10.1224 84.2857 9.65617C83.7721 9.18016 83.1597 8.82341 82.4923 8.61142C81.8248 8.39943 81.1188 8.33741 80.4247 8.4298ZM68.2235 27.6408C68.2249 28.1823 68.0218 28.7044 67.655 29.1027C67.3022 29.5187 66.807 29.7883 66.2662 29.8588C66.0196 29.9014 65.7666 29.8895 65.5251 29.8238C65.2836 29.7581 65.0595 29.6403 64.8684 29.4787C64.6781 29.3195 64.5268 29.1187 64.4262 28.8919C64.3255 28.6651 64.2781 28.4183 64.2877 28.1703V10.6202C63.1686 10.7772 62.0502 10.9383 60.9327 11.1035V28.6917C60.9063 29.3718 61.0346 30.049 61.3078 30.6723C61.581 31.2956 61.992 31.8489 62.5099 32.2904C63.0348 32.7368 63.6518 33.0618 64.3169 33.242C64.982 33.4223 65.6786 33.4534 66.3571 33.3333C67.8477 33.1359 69.2152 32.4019 70.2035 31.2687C71.2375 30.1767 71.8103 28.728 71.8027 27.2241V9.63912C70.6115 9.78368 69.4184 9.93366 68.2235 10.0891V27.6408ZM173.968 27.4028C173.977 27.6508 173.931 27.8977 173.833 28.1256C173.734 28.3534 173.586 28.5563 173.399 28.7193C173.211 28.8849 172.989 29.0071 172.749 29.0773C172.509 29.1475 172.256 29.1639 172.009 29.1254C171.467 29.0614 170.968 28.7983 170.609 28.3872C170.235 27.9949 170.026 27.4732 170.027 26.931V9.37435C168.905 9.24441 167.783 9.11906 166.661 8.99832V26.5866C166.656 28.0745 167.223 29.5075 168.244 30.5898C169.23 31.725 170.606 32.4495 172.1 32.6202C172.781 32.7278 173.478 32.6874 174.143 32.5015C174.808 32.3157 175.425 31.9888 175.952 31.5432C176.478 31.0988 176.895 30.5402 177.172 29.9099C177.449 29.2796 177.578 28.5943 177.55 27.9064V10.3148C176.359 10.1524 175.166 9.99728 173.972 9.84947L173.968 27.4028ZM29.9948 16.6294C28.4896 16.9835 27.1554 17.8525 26.2231 19.0862C25.2186 20.2687 24.661 21.7662 24.6475 23.3176V35.7356C24.6137 36.395 24.7383 37.0529 25.0109 37.6543C25.2834 38.2557 25.696 38.783 26.2142 39.1922C26.7435 39.6007 27.3615 39.8791 28.0182 40.005C28.6749 40.1308 29.352 40.1006 29.9948 39.9167C31.4711 39.5707 32.7812 38.7223 33.7007 37.5167C34.7105 36.3545 35.2713 34.8695 35.282 33.33V25.2262C33.8331 25.5343 32.3856 25.8502 30.9394 26.174C30.6378 27.389 30.3362 28.6046 30.0346 29.8206C30.6649 29.6777 31.2951 29.5366 31.9253 29.3975V34.0268C31.9204 34.5834 31.7164 35.1198 31.3503 35.5391C30.974 35.99 30.4606 36.3057 29.8884 36.4382C29.6554 36.5046 29.41 36.5158 29.1719 36.4708C28.9338 36.4258 28.7094 36.3259 28.5167 36.1791C28.3283 36.0301 28.1784 35.8381 28.0795 35.6192C27.9806 35.4003 27.9355 35.1609 27.9482 34.921V22.4697C27.9678 21.9116 28.1668 21.3746 28.5155 20.9384C28.8643 20.5022 29.3442 20.1899 29.8844 20.0478C30.1238 19.9811 30.3753 19.9702 30.6196 20.0159C30.8639 20.0617 31.0944 20.1629 31.2935 20.3118C31.4832 20.4627 31.6343 20.6566 31.7342 20.8775C31.834 21.0984 31.8798 21.3399 31.8677 21.582V23.303C33.0047 23.0518 34.1417 22.8051 35.2788 22.5631V20.9144C35.3116 20.2474 35.1872 19.582 34.9156 18.9718C34.6441 18.3617 34.2329 17.8239 33.7154 17.4018C33.2035 16.9826 32.5978 16.6934 31.9499 16.5589C31.3021 16.4244 30.6313 16.4486 29.9948 16.6294ZM96.8523 10.6706C97.1561 9.5043 97.4601 8.3383 97.7644 7.17257C94.6863 7.35233 91.6098 7.56593 88.535 7.81337V30.5378C91.3039 30.3147 94.0745 30.1192 96.8467 29.9514C97.1531 28.7851 97.459 27.6191 97.7644 26.4534C95.8358 26.5655 93.9074 26.6914 91.9793 26.8311V20.6358C93.5062 20.5276 95.0334 20.4255 96.5608 20.3297V16.8869C95.0328 16.98 93.5057 17.0818 91.9793 17.1923V10.9938C93.6042 10.8769 95.228 10.7691 96.8523 10.6706ZM131.816 10.0257C132.12 8.88489 132.424 7.74433 132.729 6.60405C129.648 6.52446 126.566 6.47952 123.483 6.46923V29.1969C126.259 29.2066 129.035 29.244 131.81 29.309C132.117 28.1676 132.423 27.0273 132.729 25.8881C130.798 25.8389 128.866 25.8026 126.935 25.7793V19.5808C128.465 19.5987 129.995 19.6258 131.524 19.6621V16.2185C129.994 16.1838 128.465 16.1568 126.935 16.1373V9.93881C128.563 9.9583 130.19 9.98727 131.817 10.0257H131.816ZM144.296 18.7321C145.148 22.4632 145.999 26.197 146.851 29.9335C145.606 29.8593 144.362 29.7909 143.12 29.7281C142.335 26.4729 141.55 23.2202 140.765 19.9699C140.085 19.939 139.405 19.91 138.724 19.883V29.5283C137.574 29.4828 136.423 29.4416 135.272 29.4048V6.66009C137.087 6.71749 138.901 6.78706 140.713 6.86882C141.507 6.84321 142.296 6.98965 143.027 7.29809C143.759 7.60652 144.414 8.06963 144.95 8.65558C145.792 9.78104 146.212 11.1671 146.136 12.571V14.746C146.153 15.5066 145.996 16.261 145.677 16.9517C145.358 17.6425 144.886 18.2514 144.297 18.7321H144.296ZM142.78 12.4492C142.816 12.1773 142.79 11.9009 142.705 11.6403C142.62 11.3796 142.477 11.1413 142.288 10.9427C142.099 10.7441 141.868 10.5903 141.612 10.4925C141.356 10.3947 141.081 10.3554 140.808 10.3774C140.113 10.3454 139.419 10.3159 138.725 10.2889V16.4386C139.42 16.4667 140.114 16.4965 140.808 16.5279C141.063 16.5423 141.319 16.504 141.559 16.4155C141.799 16.327 142.018 16.1902 142.203 16.0134C142.388 15.8367 142.535 15.6238 142.634 15.3881C142.733 15.1523 142.783 14.8987 142.78 14.6429V12.4492ZM161.758 20.034C162.608 23.8009 163.458 27.5704 164.308 31.3426C163.067 31.2159 161.826 31.0952 160.585 30.9804C159.802 27.6917 159.019 24.4059 158.235 21.1231C157.557 21.0636 156.878 21.0062 156.2 20.951V30.5963C155.051 30.502 153.902 30.4124 152.753 30.3274V7.58677C154.565 7.72105 156.376 7.8667 158.187 8.02372C158.99 8.03779 159.78 8.22031 160.508 8.55945C161.235 8.89859 161.884 9.38679 162.41 9.99241C163.247 11.1397 163.665 12.5392 163.595 13.9574V16.13C163.616 16.879 163.461 17.6225 163.142 18.3006C162.823 18.9787 162.349 19.5724 161.759 20.034H161.758ZM160.246 13.687C160.278 13.412 160.251 13.1333 160.167 12.8698C160.082 12.6063 159.941 12.3641 159.755 12.1597C159.568 11.9553 159.34 11.7934 159.085 11.6852C158.83 11.5769 158.555 11.5248 158.278 11.5323C157.585 11.4722 156.892 11.4134 156.2 11.356V17.5066C156.893 17.5634 157.586 17.6222 158.278 17.6828C158.529 17.7102 158.783 17.6838 159.023 17.6052C159.263 17.5267 159.484 17.3978 159.67 17.2272C159.856 17.0566 160.004 16.8483 160.103 16.6161C160.203 16.3839 160.251 16.1331 160.246 15.8806V13.687ZM206.052 29.9303C206.14 30.4628 206.182 31.0019 206.179 31.5416C206.233 32.7654 205.952 33.9807 205.367 35.0567C204.956 35.7508 204.328 36.2903 203.58 36.5917C202.766 36.9469 201.865 37.0496 200.992 36.8865C198.926 36.488 196.858 36.1054 194.787 35.7389V12.8845C196.453 13.1791 198.117 13.4842 199.779 13.7998C201.134 14.0599 202.396 14.6767 203.434 15.5866C204.401 16.4415 205.093 17.5637 205.423 18.8117C205.651 19.6219 205.76 20.461 205.748 21.3026C205.796 21.928 205.714 22.5567 205.505 23.1483C205.297 23.7399 204.967 24.2814 204.537 24.7381C204.202 25.0553 203.791 25.2794 203.343 25.3878C204.17 25.9033 204.84 26.637 205.277 27.5084C205.662 28.2704 205.924 29.0882 206.055 29.9319L206.052 29.9303ZM198.261 22.8458C198.812 22.9481 199.362 23.0515 199.912 23.156C200.128 23.2238 200.356 23.2476 200.581 23.226C200.806 23.2044 201.025 23.1378 201.224 23.0301C201.423 22.9224 201.599 22.7758 201.741 22.5991C201.882 22.4223 201.987 22.219 202.048 22.0011C202.194 21.5489 202.261 21.0751 202.247 20.6001C202.288 19.782 202.045 18.9749 201.56 18.3147C201.152 17.7923 200.565 17.4394 199.912 17.3238C199.362 17.2199 198.811 17.1165 198.261 17.0136V22.8458ZM202.555 30.5573C202.581 29.5062 202.28 28.4729 201.694 27.6002C201.495 27.2938 201.234 27.0333 200.926 26.8359C200.619 26.6384 200.273 26.5086 199.912 26.455C199.362 26.3511 198.811 26.2476 198.261 26.1448V32.9613C198.812 33.0636 199.362 33.1673 199.912 33.2723C200.409 33.412 200.941 33.3495 201.392 33.0985C201.843 32.8475 202.177 32.4282 202.32 31.9323C202.487 31.4941 202.568 31.0277 202.557 30.5589L202.555 30.5573ZM215.646 17.1305C214.812 19.6753 213.978 22.2201 213.143 24.7649C212.303 21.8411 211.461 18.9216 210.619 16.0065C209.368 15.7358 208.117 15.4697 206.865 15.2081C208.388 19.9534 209.91 24.7075 211.431 29.4706V39.0395C212.568 39.2891 213.703 39.5433 214.837 39.8022V30.2332C216.361 26.1524 217.884 22.0802 219.406 18.0166C218.155 17.7156 216.903 17.4208 215.649 17.1322L215.646 17.1305ZM41.69 33.5599V14.275C40.553 14.498 39.4192 14.7257 38.2887 14.958V37.6848C40.7252 37.1851 43.1663 36.7075 45.612 36.2522L44.7056 32.9783C43.7007 33.1689 42.6955 33.3628 41.69 33.5599Z" fill="white"/>
<path d="M186.281 11.3284C185.609 11.2005 184.916 11.2256 184.255 11.4018C183.594 11.578 182.98 11.9008 182.461 12.3463C181.941 12.7918 181.528 13.3486 181.253 13.9753C180.978 14.602 180.848 15.2826 180.871 15.9667V28.3814C180.877 29.8854 181.442 31.3333 182.458 32.4423C183.423 33.6119 184.783 34.3863 186.281 34.6181C186.943 34.7443 187.625 34.72 188.276 34.5471C188.927 34.3741 189.531 34.0568 190.043 33.6188C190.554 33.1807 190.961 32.6331 191.233 32.0166C191.504 31.4 191.633 30.7303 191.611 30.0569V21.9515C190.153 21.7046 188.694 21.4659 187.235 21.2352C186.931 22.3349 186.627 23.4348 186.322 24.535C186.958 24.6341 187.593 24.7348 188.23 24.8372V29.4665C188.24 29.7121 188.192 29.9566 188.092 30.1808C187.991 30.405 187.84 30.6029 187.65 30.7587C187.441 30.9148 187.201 31.0255 186.947 31.0835C186.693 31.1416 186.429 31.1457 186.173 31.0957C185.631 31.0121 185.138 30.7331 184.787 30.3112C184.421 29.907 184.218 29.3814 184.218 28.8363V16.3841C184.209 16.1363 184.255 15.8895 184.354 15.6622C184.453 15.4349 184.603 15.233 184.791 15.0716C184.979 14.9102 185.202 14.7935 185.441 14.7302C185.681 14.6669 185.932 14.6587 186.176 14.7062C186.731 14.7941 187.236 15.0797 187.597 15.5102C187.968 15.9184 188.174 16.4492 188.177 17.0006V18.7215C189.323 18.9062 190.468 19.0957 191.613 19.2901V17.6414C191.607 16.1249 191.048 14.6627 190.039 13.5302C189.109 12.3484 187.767 11.5619 186.281 11.3284Z" fill="white"/>
</svg>
