<svg width="240" height="240" viewBox="0 0 240 240" fill="none" xmlns="http://www.w3.org/2000/svg">
<path d="M13.3317 33.699C11.4165 32.8798 9.36201 32.4356 7.2795 32.3904C5.48019 32.3904 4.00803 33.29 4.00803 35.2529C4.00803 39.833 14.9674 39.424 14.9674 45.7216C14.9674 49.9745 11.1235 51.5284 6.46163 51.5284C4.48108 51.4549 2.51072 51.2086 0.572996 50.7924V48.4205C2.56268 49.5018 4.77196 50.1171 7.03414 50.2198C9.16059 50.2198 11.287 49.4838 11.287 46.7848C11.287 41.9594 0.327637 42.4501 0.327637 36.1526C0.327637 32.8811 3.19017 31 7.93379 31C9.74679 31.0258 11.5536 31.2174 13.3317 31.5725V33.699Z" fill="#18073A"/>
<path d="M29.6885 62.8967C25.2806 61.1641 20.6016 60.2228 15.8666 60.1159C11.7773 60.1159 8.50581 62.0788 8.50581 66.1682C8.50581 75.819 33.5325 74.9193 33.5325 88.3323C33.5325 97.3288 24.8631 100.682 14.2309 100.682C9.6897 100.583 5.16946 100.035 0.736079 99.0464V93.9756C3.10789 95.1206 9.32367 97.7378 15.4577 97.7378C20.2831 97.7378 25.1085 96.102 25.1085 90.377C25.0267 80.2354 0 81.2169 0 67.9675C0 61.0974 6.46114 57.0898 17.3388 57.0898C21.4791 57.146 25.6085 57.5289 29.6885 58.2349V62.8967Z" fill="#18073A"/>
<path d="M233.664 62.8964C229.256 61.1639 224.577 60.2225 219.842 60.1157C215.753 60.1157 212.482 62.0786 212.482 66.1679C212.482 75.8187 237.508 74.9191 237.508 88.4139C237.508 97.4104 228.839 100.764 218.207 100.764C213.666 100.664 209.145 100.116 204.712 99.1279V93.9754C207.084 95.1204 213.299 97.7375 219.433 97.7375C224.259 97.7375 229.084 96.1018 229.084 90.3767C229.084 80.2352 204.058 81.1349 204.058 67.8854C204.058 61.0154 210.519 57.0078 221.396 57.0078C225.537 57.064 229.666 57.4468 233.746 58.1528V62.8964H233.664Z" fill="#18073A"/>
<path d="M23.0642 35.0891C23.2941 34.5025 23.4854 33.9014 23.6367 33.2898C23.6367 32.063 22.4099 32.063 21.0195 31.8994V31.2451H27.3989L35.7411 51.3646H32.2243L29.6889 45.1488H20.9377L18.4023 51.3646H16.2759L23.0642 35.0891ZM21.5102 43.7585H29.0346L25.1906 35.0073L21.5102 43.7585Z" fill="#18073A"/>
<path d="M52.9164 49.9745V50.7106C52.9164 51.4466 51.4442 51.3649 51.4442 51.3649H39.258V35.1711C39.258 32.7175 39.1762 32.3904 35.9048 32.0632V31.4089L42.9384 31.3271V47.848C42.9384 50.0563 42.9384 50.0563 45.1467 50.0563H48.0092L52.9164 49.9745Z" fill="#18073A"/>
<path d="M68.2914 49.8927C68.6652 49.924 69.0279 50.0355 69.3546 50.2199V50.7924C69.3546 51.1195 68.3732 51.2831 68.3732 51.2831H55.9416V35.3347C55.9416 32.3904 55.8598 32.3086 52.5884 31.8179V31.3271H69.3546V32.145C68.8639 32.6357 64.7746 32.7175 64.7746 32.7175H62.0756C60.3581 32.7175 59.8674 32.7993 59.8674 34.2715V40.1601H69.4364V41.5505H59.7856V48.1752C59.7856 49.8109 60.2763 49.8927 61.9938 49.8927H65.8378C66.6551 49.9342 67.4741 49.9342 68.2914 49.8927Z" fill="#18073A"/>
<path d="M69.6004 62.9787C69.6004 58.4805 62.4031 58.1533 62.4031 58.1533V57.3354H78.1879V100.11H69.7639V79.5814H49.0719V100.11H40.7297V66.1684C40.7297 61.1794 40.239 59.4619 33.1235 58.8076V57.4172L49.0719 57.1719V76.6371H69.7639V65.923L69.6004 62.9787Z" fill="#18073A"/>
<path d="M166.6 66.1684C166.6 61.1794 166.027 59.2165 159.239 58.5622V57.1719H174.696V78.1092H174.86L193.098 57.908H198.496L181.812 76.3917L201.522 100.192H192.117L174.86 78.9271H174.696V100.192H166.6V66.1684Z" fill="#18073A"/>
<path d="M21.6735 106.244C22.0007 107.307 31.3244 137.486 33.0419 141.576C34.7594 145.665 36.3133 147.219 36.3133 147.219C39.7484 142.884 45.9642 136.75 46.2913 135.687C46.4549 135.196 42.5291 128.98 42.5291 128.98L53.4885 128.653C62.0761 119.657 85.876 109.352 85.876 109.352C82.6509 109.471 79.4216 109.307 76.2252 108.861C79.4967 105.589 85.1399 100.928 85.1399 82.4439C85.0886 71.1256 82.6355 59.9472 77.9427 49.6475C109.349 64.9416 122.925 93.2397 122.925 93.2397V65.4323C122.925 58.0715 116.71 58.5622 115.892 58.3986C115.074 58.2351 115.401 57.5808 116.382 57.3354C117.446 57.1718 129.959 57.2536 134.948 57.3354C151.96 57.6625 155.885 62.9787 155.885 68.7037C155.969 70.444 155.561 72.1727 154.708 73.6916C153.854 75.2105 152.59 76.4581 151.06 77.2913C149.67 78.191 144.353 79.6631 144.353 79.6631L158.257 99.9462H149.67L135.766 80.3992L131.104 80.5628V100.11H126.442L127.505 102.891C198.578 118.348 238.572 143.211 239.308 143.784C239.962 144.275 240.534 144.683 239.144 145.501C237.754 146.401 220.088 153.925 215.998 155.806C211.909 157.688 200.377 158.015 200.377 158.015L189.909 167.093C185.41 166.602 174.124 163.658 171.507 163.167C168.971 162.677 159.32 161.613 159.32 161.613C161.485 166.378 162.998 171.412 163.819 176.58C158.012 172.982 134.457 157.851 132.085 156.461C129.714 155.07 112.866 154.253 112.866 154.253C75.8163 170.037 51.771 185.168 51.771 185.168C56.0239 171.428 70.8273 151.554 70.8273 151.554C48.9903 152.29 35.9862 162.268 35.9862 162.268C36.8859 160.55 38.0309 155.725 38.0309 155.725C24.6179 168.074 7.76983 208.232 7.76983 208.232C0.572608 183.369 17.8296 159.978 17.8296 159.978C20.2832 113.932 20.1196 105.508 20.1196 104.608C20.1196 103.708 21.2646 104.363 21.2646 104.363C21.3359 105.002 21.4729 105.632 21.6735 106.244ZM173.306 148.364L152.45 148.119C152.45 148.119 155.64 150.245 157.685 150.245C157.685 150.245 156.621 152.617 155.476 153.271C155.476 153.271 162.101 153.353 165.291 151.554C164.287 153.277 162.884 154.735 161.201 155.806C161.201 155.806 166.436 157.033 175.432 154.089C175.432 154.089 175.514 156.297 172.324 159.569C172.324 159.569 182.057 159.487 185.247 157.033C185.249 157.516 185.137 157.992 184.92 158.424C184.138 159.356 183.291 160.23 182.384 161.041C182.384 161.041 191.626 158.996 194.734 155.234C186.4 154.737 178.1 153.781 169.871 152.371C168.317 152.126 169.298 151.472 170.198 150.736C171.179 150.081 173.306 148.364 173.306 148.364ZM37.1312 153.598C82.7681 138.141 109.022 136.423 109.839 136.341C110.657 136.259 112.457 130.371 112.457 130.371C112.538 142.475 114.092 146.646 114.092 146.646C116.464 134.624 118.754 129.226 118.754 129.226C118.672 143.538 121.29 147.955 121.29 147.955C123.089 134.869 125.87 128.163 125.87 128.163C126.36 147.382 128.732 147.301 128.732 147.301C129.632 136.341 132.658 130.78 132.658 130.78C132.903 142.148 136.011 145.583 136.011 145.583C135.52 141.33 137.483 134.215 137.483 134.215C150.569 133.642 168.726 137.323 168.726 137.323V136.75C167.581 136.505 159.075 127.345 158.339 126.118C157.521 124.891 158.666 125.218 159.566 126.036C173.878 138.631 205.366 141.003 205.693 140.921C206.021 140.84 206.838 140.921 206.348 141.739C205.857 142.557 203.976 147.137 203.976 147.137C205.039 147.382 210.355 141.903 210.355 141.903C210.355 141.903 213.218 142.148 214.036 142.23C214.853 142.312 213.463 141.167 212.563 140.594C166.436 113.523 119.981 110.333 119.981 110.333C109.431 77.782 89.5564 64.778 89.5564 64.778C98.0622 90.6225 90.4561 114.668 90.4561 114.668C59.5407 125.464 35.9862 153.844 35.9862 153.844C36.3739 153.793 36.7569 153.711 37.1312 153.598ZM131.268 77.4549H135.03C135.03 77.4549 147.38 78.6817 147.38 68.213C147.38 65.8412 146.316 60.5251 136.584 60.2797C135.03 60.2797 131.104 60.4433 131.104 64.2055C131.104 67.9677 131.268 77.4549 131.268 77.4549Z" fill="#18073A"/>
</svg>
