<svg width="240" height="240" viewBox="0 0 240 240" fill="none" xmlns="http://www.w3.org/2000/svg">
<path d="M22.9873 207.546C23.1175 210.497 22.2359 213.404 20.4886 215.786C19.2972 217.373 17.6169 218.523 15.7068 219.06C14.4518 219.423 13.1497 219.596 11.8435 219.573C9.42503 219.667 7.04389 218.955 5.0733 217.55C3.52306 216.378 2.30096 214.827 1.52491 213.045C0.616425 210.982 0.0993379 208.769 0 206.517L6.61862 206.042C6.69845 208.162 7.44535 210.202 8.7529 211.873C9.10062 212.293 9.53996 212.629 10.0373 212.853C10.5346 213.077 11.0766 213.185 11.6219 213.168C12.3718 213.141 13.1019 212.92 13.7404 212.526C14.3789 212.132 14.9039 211.578 15.2636 210.92C15.7844 209.989 16.0272 208.928 15.9634 207.864C15.8505 205.696 14.9114 203.654 13.3393 202.158L7.16968 196.312C5.25408 194.563 3.60654 192.541 2.28007 190.311C1.24684 188.309 0.716471 186.086 0.734754 183.833C0.618941 182.021 0.942285 180.207 1.67731 178.547C2.41234 176.887 3.53732 175.428 4.95667 174.296C6.8412 172.952 9.11614 172.266 11.4295 172.345C13.6655 172.281 15.8734 172.855 17.7945 174.001C19.1966 174.894 20.3429 176.136 21.1213 177.605C21.9984 179.257 22.5189 181.075 22.6491 182.941L15.9984 184.154C15.9125 182.554 15.3488 181.018 14.3802 179.742C14.0384 179.353 13.612 179.048 13.1339 178.85C12.6557 178.652 12.1385 178.566 11.6219 178.599C11.0264 178.58 10.4374 178.728 9.92197 179.027C9.40653 179.326 8.98532 179.764 8.70625 180.29C8.13621 181.324 7.85709 182.493 7.89861 183.672C8.01476 186.074 8.97983 188.357 10.6219 190.113C11.5581 191.187 12.5917 192.172 13.7096 193.055C15.3268 194.404 16.3959 195.348 16.9168 195.886C18.4649 197.39 19.8009 199.098 20.888 200.963C21.2874 201.663 21.6437 202.388 21.9552 203.132C22.5629 204.529 22.9126 206.024 22.9873 207.546Z" fill="#1B1C1C"/>
<path d="M38.5177 208.43L36.8295 219.023H29.5898L37.4243 172.935H46.9878L54.7114 219.023H47.4018L45.7778 208.43H38.5177ZM42.1681 183.492L39.5936 201.663H44.7427L42.1681 183.492Z" fill="#1B1C1C"/>
<path d="M74.1085 172.933C75.6796 172.799 77.2606 173.018 78.7364 173.573C80.2123 174.127 81.5458 175.004 82.6398 176.14C84.3528 178.365 85.2021 181.136 85.0307 183.939V190.645C85.0509 192.212 84.729 193.764 84.0875 195.193C83.4459 196.622 82.5001 197.894 81.3161 198.92L86.4652 219.038H78.9486L74.7325 201.678H70.0965V219.038H63.1484V172.933H74.1085ZM78.2634 184.044C78.3436 183.502 78.2966 182.949 78.1261 182.429C77.9556 181.908 77.6662 181.435 77.2809 181.045C76.8955 180.656 76.4249 180.362 75.9061 180.186C75.3874 180.01 74.8348 179.958 74.2922 180.032H70.0965V194.783H74.2922C74.8162 194.793 75.3366 194.694 75.8208 194.493C76.305 194.293 76.7425 193.994 77.1058 193.616C77.4821 193.248 77.7795 192.808 77.98 192.321C78.1805 191.834 78.2799 191.312 78.2721 190.785L78.2634 184.044Z" fill="#1B1C1C"/>
<path d="M103.568 208.43L101.88 219.023H94.6431L102.478 172.935H112.041L119.765 219.023H112.452L110.828 208.43H103.568ZM107.221 183.492L104.647 201.663H109.796L107.221 183.492Z" fill="#1B1C1C"/>
<path d="M138.168 219.611C136.719 219.619 135.283 219.34 133.942 218.791C132.602 218.241 131.383 217.432 130.356 216.409C129.33 215.387 128.516 214.171 127.961 212.833C127.406 211.494 127.121 210.059 127.123 208.611V183.454C127.123 180.532 128.284 177.731 130.349 175.665C132.415 173.599 135.217 172.438 138.139 172.438C141.06 172.438 143.862 173.599 145.928 175.665C147.993 177.731 149.154 180.532 149.154 183.454V188.702H141.958V183.308C141.956 182.245 141.532 181.226 140.78 180.475C140.028 179.723 139.009 179.301 137.946 179.299C137.422 179.288 136.901 179.386 136.417 179.587C135.933 179.788 135.495 180.087 135.132 180.465C134.756 180.834 134.459 181.276 134.259 181.763C134.058 182.25 133.959 182.773 133.966 183.299V208.532C133.964 209.054 134.065 209.572 134.264 210.055C134.462 210.538 134.755 210.977 135.124 211.346C135.493 211.715 135.932 212.008 136.415 212.207C136.898 212.406 137.415 212.508 137.937 212.506C138.464 212.513 138.987 212.414 139.474 212.213C139.961 212.013 140.403 211.716 140.771 211.34C141.148 210.976 141.446 210.538 141.647 210.054C141.848 209.57 141.947 209.05 141.938 208.526V202.176H149.166V208.611C149.168 210.055 148.884 211.487 148.332 212.822C147.78 214.157 146.971 215.371 145.949 216.393C144.927 217.414 143.714 218.225 142.379 218.777C141.044 219.329 139.613 219.613 138.168 219.611Z" fill="#1B1C1C"/>
<path d="M157.447 219.021V172.895H177.236V179.892H164.407V192.473H173.787V199.471H164.41V212.052H177.239V219.05L157.447 219.021Z" fill="#1B1C1C"/>
<path d="M192.437 172.895L201.662 203.894V172.895H208.616V219.021H201.134L191.562 189.485V219.021H184.62V172.895H192.437Z" fill="#1B1C1C"/>
<path d="M239.987 207.546C240.116 210.498 239.233 213.405 237.485 215.786C236.295 217.374 234.614 218.525 232.703 219.06C231.448 219.423 230.146 219.596 228.84 219.573C226.423 219.667 224.042 218.955 222.073 217.55C220.522 216.379 219.3 214.827 218.524 213.045C217.614 210.983 217.096 208.769 217 206.517L223.618 206.042C223.697 208.162 224.444 210.203 225.752 211.873C226.099 212.294 226.538 212.629 227.035 212.854C227.532 213.078 228.074 213.186 228.619 213.168C229.368 213.141 230.099 212.92 230.737 212.526C231.376 212.132 231.901 211.578 232.26 210.92C232.781 209.989 233.024 208.929 232.96 207.864C232.846 205.7 231.908 203.661 230.339 202.167L224.158 196.312C222.241 194.564 220.593 192.542 219.268 190.312C218.233 188.31 217.703 186.086 217.723 183.833C217.607 182.02 217.931 180.207 218.667 178.546C219.403 176.886 220.53 175.427 221.95 174.296C223.836 172.951 226.112 172.266 228.426 172.345C230.661 172.28 232.868 172.855 234.788 174.001C236.192 174.893 237.338 176.135 238.115 177.605C238.993 179.256 239.514 181.075 239.643 182.941L232.986 184.154C232.898 182.555 232.334 181.019 231.368 179.742C231.026 179.354 230.599 179.049 230.12 178.85C229.641 178.652 229.124 178.566 228.607 178.599C228.011 178.579 227.422 178.727 226.906 179.026C226.391 179.325 225.97 179.763 225.691 180.29C225.12 181.324 224.84 182.493 224.881 183.673C224.998 186.074 225.963 188.356 227.604 190.113C228.541 191.187 229.576 192.172 230.695 193.055C232.314 194.404 233.383 195.348 233.902 195.886C235.452 197.389 236.789 199.097 237.876 200.963C238.276 201.663 238.631 202.387 238.94 203.132C239.551 204.529 239.906 206.024 239.987 207.546Z" fill="#1B1C1C"/>
<path d="M226.618 56.39C219.468 29.7114 162.644 9.77101 103.395 25.6469C44.1448 41.5229 4.90838 87.203 12.0577 113.885C19.2069 140.566 76.0308 160.506 135.289 144.63C194.548 128.755 233.781 83.089 226.629 56.39H226.618Z" fill="#1B1C1C"/>
<path d="M33.2999 117.595C27.2702 106.107 31.2851 89.1348 46.3505 73.4105C63.1157 54.8637 93.9608 39.3494 120.027 35.1304C124.835 34.2885 129.704 33.8447 134.585 33.8037C122.488 37.6766 110.92 43.04 100.148 49.77C74.8893 64.7013 56.5642 84.6883 55.7798 102.512C53.182 119.782 71.3525 135.191 94.4652 135.518C65.3083 142.343 42.5455 132.06 33.2999 117.595Z" fill="#BE1824"/>
<path d="M87.2744 74.279L123.688 69.8792L147.3 41.8652L150.099 65.4765L186.116 61.8756L150.901 81.0813L153.703 105.891L126.89 93.887L87.2744 113.096L109.684 85.8834L87.2744 74.279Z" fill="#BE1824"/>
</svg>
